<svg version="1.2" xmlns="http://www.w3.org/2000/svg" viewBox="0 0 1400 1000" width="1400" height="1000">
	<title>435-ai</title>
	<defs>
		<linearGradient id="g1" x1="329.7" y1="330.3" x2="1145.2" y2="330.3" gradientUnits="userSpaceOnUse">
			<stop offset="0" stop-color="#ffc485"/>
			<stop offset="1" stop-color="#d03e3e"/>
		</linearGradient>
	</defs>
	<style>
		.s0 { fill: #77008f } 
		.s1 { fill: #ff7f85 } 
		.s2 { mix-blend-mode: multiply;fill: #b0a7c2 } 
		.s3 { fill: #a9a8c6 } 
		.s4 { fill: #1c1a2a } 
		.s5 { fill: #e1dfea } 
		.s6 { fill: #7c7ca0 } 
		.s7 { fill: url(#g1) } 
		.s8 { fill: #090000 } 
		.s9 { fill: #1a2738 } 
		.s10 { fill: #f2f8ff } 
		.s11 { fill: #717f90 } 
		.s12 { fill: #8140ff } 
		.s13 { fill: #a68efe } 
		.s14 { fill: #d0b8ff } 
		.s15 { fill: #ff73b5 } 
		.s16 { fill: #a135bc } 
		.s17 { fill: #d2448d } 
		.s18 { fill: #fbfafc } 
		.s19 { mix-blend-mode: multiply;fill: #cdc3e2 } 
		.s20 { mix-blend-mode: multiply;fill: #aa9bc3 } 
		.s21 { fill: #b4aad1 } 
		.s22 { fill: #c42979 } 
		.s23 { fill: #f1519d } 
		.s24 { fill: #ece7f2 } 
		.s25 { fill: #1a293b } 
		.s26 { fill: #3f4f5d } 
		.s27 { fill: #9b346c } 
		.s28 { fill: #fac152 } 
		.s29 { fill: #a23042 } 
		.s30 { fill: #fde86b } 
		.s31 { fill: #ef4f25 } 
		.s32 { fill: #fa7800 } 
		.s33 { fill: #c2485c } 
		.s34 { fill: #ffec8e } 
		.s35 { mix-blend-mode: multiply;fill: #dbd0f2 } 
		.s36 { fill: #d64a78 } 
		.s37 { fill: #f50054 } 
		.s38 { fill: #5f26cf } 
		.s39 { fill: #e95950 } 
		.s40 { fill: #f5b538 } 
		.s41 { fill: #f8e150 } 
		.s42 { fill: #aa682d } 
		.s43 { fill: #a482f4 } 
		.s44 { fill: #c6b3eb } 
		.s45 { fill: #f0e0dc } 
		.s46 { fill: #821e4d } 
		.s47 { fill: #ad3970 } 
		.s48 { fill: #f3e187 } 
		.s49 { fill: #f7b23b } 
		.s50 { fill: #fbc959 } 
	</style>
	<g id="Default">
		<g id="&lt;Group&gt;">
			<path id="&lt;Path&gt;" class="s0" d="m244.1 889.2c11 6.3 11 16.6 0 23-10.9 6.3-28.7 6.3-39.7 0-11-6.4-11-16.7 0-23 11-6.4 28.8-6.4 39.7 0z"/>
			<path id="&lt;Path&gt;" class="s0" d="m1011.7 848.2c12.4 7.1 12.4 18.7 0 25.9-12.4 7.1-32.4 7.1-44.8 0-12.4-7.2-12.4-18.8 0-25.9 12.4-7.2 32.4-7.2 44.8 0z"/>
			<path id="&lt;Path&gt;" class="s1" d="m203.1 659.1c6.9 4 6.9 10.3 0 14.3-6.8 3.9-17.9 3.9-24.7 0-6.8-4-6.8-10.3 0-14.3 6.8-3.9 17.9-3.9 24.7 0z"/>
			<path id="&lt;Path&gt;" class="s1" d="m599.2 858c4.7 2.8 4.7 7.2 0 9.9-4.8 2.8-12.4 2.8-17.2 0-4.7-2.7-4.7-7.1 0-9.9 4.8-2.7 12.4-2.7 17.2 0z"/>
			<g id="&lt;Group&gt;">
				<g id="&lt;Group&gt;">
					<path id="&lt;Path&gt;" class="s0" d="m548.4 687.5l-170.2 98.3c-5.6 3.2-14.5 3.2-20.1 0-5.5-3.2-5.5-8.4 0-11.6l170.3-98.3c5.5-3.2 14.5-3.2 20 0 5.5 3.2 5.5 8.4 0 11.6z"/>
					<path id="&lt;Path&gt;" class="s0" d="m679.9 611.5l-89.9 52c-5.6 3.1-14.5 3.1-20.1 0-5.5-3.2-5.5-8.4 0-11.6l90-52c5.5-3.2 14.5-3.2 20 0 5.6 3.2 5.6 8.4 0 11.6z"/>
				</g>
				<path id="&lt;Path&gt;" class="s0" d="m598.9 606.7l-170.3 98.3c-5.5 3.2-14.5 3.2-20 0-5.5-3.2-5.5-8.3 0-11.5l170.3-98.4c5.5-3.2 14.5-3.2 20 0 5.5 3.2 5.5 8.4 0 11.6z"/>
				<path id="&lt;Path&gt;" class="s0" d="m816.6 480.9l-170.3 98.4c-5.5 3.2-14.5 3.2-20 0-5.5-3.2-5.5-8.4 0-11.6l170.3-98.3c5.5-3.2 14.4-3.2 20 0 5.5 3.2 5.5 8.3 0 11.5z"/>
				<path id="&lt;Path&gt;" class="s0" d="m914.4 527.7l-170.3 98.3c-5.5 3.2-14.5 3.2-20 0-5.5-3.2-5.5-8.4 0-11.6l170.2-98.3c5.6-3.2 14.5-3.2 20.1 0 5.5 3.2 5.5 8.4 0 11.6z"/>
				<path id="&lt;Path&gt;" class="s0" d="m593.1 713.3l-49.8 28.7c-5.6 3.2-14.5 3.2-20.1 0-5.5-3.2-5.5-8.3 0-11.5l49.9-28.8c5.5-3.2 14.5-3.2 20 0 5.5 3.2 5.5 8.4 0 11.6z"/>
				<path id="&lt;Path&gt;" class="s0" d="m1020.3 466.4l-49.8 28.8c-5.5 3.2-14.5 3.2-20 0-5.6-3.2-5.6-8.3 0-11.5l49.8-28.8c5.5-3.2 14.5-3.2 20 0 5.6 3.2 5.6 8.4 0 11.5z"/>
				<path id="&lt;Path&gt;" class="s0" d="m632.8 535.5l-170.3 98.4c-5.5 3.2-14.5 3.2-20 0-5.5-3.2-5.5-8.4 0-11.6l170.2-98.3c5.6-3.2 14.5-3.2 20.1 0 5.5 3.2 5.5 8.3 0 11.5z"/>
				<path id="&lt;Path&gt;" class="s0" d="m738.7 474.3l-49.8 28.8c-5.5 3.2-14.5 3.2-20 0-5.6-3.2-5.6-8.4 0-11.6l49.8-28.8c5.5-3.2 14.5-3.2 20 0 5.6 3.2 5.6 8.4 0 11.6z"/>
			</g>
			<g id="&lt;Group&gt;">
				<g id="&lt;Group&gt;">
					<path id="&lt;Path&gt;" class="s0" d="m822.4 876.3l-170.2 98.4c-5.5 3.2-14.5 3.2-20 0-5.6-3.2-5.6-8.4 0-11.6l170.2-98.3c5.5-3.2 14.5-3.2 20 0 5.6 3.2 5.6 8.3 0 11.5z"/>
					<path id="&lt;Path&gt;" class="s0" d="m953.9 800.4l-89.9 51.9c-5.6 3.2-14.5 3.2-20 0-5.6-3.2-5.6-8.3 0-11.5l89.9-52c5.5-3.2 14.5-3.2 20 0 5.6 3.2 5.6 8.4 0 11.6z"/>
				</g>
				<path id="&lt;Path&gt;" class="s0" d="m872.9 795.6l-170.2 98.3c-5.6 3.2-14.5 3.2-20.1 0-5.5-3.2-5.5-8.3 0-11.5l170.3-98.4c5.5-3.2 14.5-3.2 20 0 5.5 3.2 5.5 8.4 0 11.6z"/>
				<path id="&lt;Path&gt;" class="s0" d="m1090.6 669.8l-170.3 98.4c-5.5 3.2-14.4 3.2-20 0-5.5-3.2-5.5-8.4 0-11.6l170.3-98.3c5.5-3.2 14.5-3.2 20 0 5.5 3.2 5.5 8.3 0 11.5z"/>
				<path id="&lt;Path&gt;" class="s0" d="m1188.4 716.5l-170.3 98.4c-5.5 3.2-14.5 3.2-20 0-5.5-3.2-5.5-8.4 0-11.6l170.2-98.3c5.6-3.2 14.5-3.2 20.1 0 5.5 3.2 5.5 8.4 0 11.5z"/>
				<path id="&lt;Path&gt;" class="s0" d="m867.1 902.1l-49.8 28.8c-5.6 3.2-14.5 3.2-20.1 0-5.5-3.2-5.5-8.3 0-11.5l49.9-28.8c5.5-3.2 14.5-3.2 20 0 5.5 3.2 5.5 8.3 0 11.5z"/>
				<path id="&lt;Path&gt;" class="s0" d="m906.8 724.4l-170.3 98.4c-5.5 3.2-14.5 3.2-20 0-5.5-3.2-5.5-8.4 0-11.6l170.2-98.4c5.6-3.1 14.5-3.1 20.1 0 5.5 3.2 5.5 8.4 0 11.6z"/>
				<path id="&lt;Path&gt;" class="s0" d="m1012.7 663.2l-49.8 28.8c-5.5 3.2-14.5 3.2-20 0-5.5-3.2-5.5-8.4 0-11.6l49.8-28.8c5.5-3.2 14.5-3.2 20 0 5.6 3.2 5.6 8.4 0 11.6z"/>
			</g>
			<g id="&lt;Group&gt;">
				<g id="&lt;Group&gt;">
					<path id="&lt;Path&gt;" class="s0" d="m705.6 746.5l-170.2 98.3c-5.5 3.2-14.5 3.2-20 0-5.6-3.2-5.6-8.3 0-11.5l170.2-98.4c5.5-3.2 14.5-3.2 20 0 5.6 3.2 5.6 8.4 0 11.6z"/>
					<path id="&lt;Path&gt;" class="s0" d="m837.2 670.5l-90 52c-5.5 3.2-14.5 3.2-20 0-5.6-3.2-5.6-8.4 0-11.6l89.9-52c5.6-3.2 14.5-3.2 20.1 0 5.5 3.2 5.5 8.4 0 11.6z"/>
				</g>
				<path id="&lt;Path&gt;" class="s0" d="m756.1 665.7l-170.2 98.4c-5.6 3.2-14.5 3.2-20.1 0-5.5-3.2-5.5-8.4 0-11.6l170.3-98.3c5.5-3.2 14.5-3.2 20 0 5.5 3.2 5.5 8.3 0 11.5z"/>
				<path id="&lt;Path&gt;" class="s0" d="m973.8 540l-170.2 98.3c-5.6 3.2-14.5 3.2-20.1 0-5.5-3.2-5.5-8.4 0-11.6l170.3-98.3c5.5-3.2 14.5-3.2 20 0 5.5 3.2 5.5 8.4 0 11.6z"/>
				<path id="&lt;Path&gt;" class="s0" d="m1071.6 586.7l-170.3 98.3c-5.5 3.2-14.5 3.2-20 0-5.5-3.2-5.5-8.3 0-11.5l170.2-98.4c5.6-3.2 14.5-3.2 20.1 0 5.5 3.2 5.5 8.4 0 11.6z"/>
				<path id="&lt;Path&gt;" class="s0" d="m750.3 772.3l-49.8 28.8c-5.6 3.2-14.5 3.2-20.1 0-5.5-3.2-5.5-8.4 0-11.6l49.9-28.8c5.5-3.2 14.5-3.2 20 0 5.5 3.2 5.5 8.4 0 11.6z"/>
				<path id="&lt;Path&gt;" class="s0" d="m1177.5 525.5l-49.8 28.8c-5.5 3.2-14.5 3.2-20 0-5.5-3.2-5.5-8.4 0-11.6l49.8-28.8c5.6-3.2 14.5-3.2 20 0 5.6 3.2 5.6 8.4 0 11.6z"/>
				<path id="&lt;Path&gt;" class="s0" d="m790 594.6l-170.3 98.3c-5.5 3.2-14.5 3.2-20 0-5.5-3.2-5.5-8.4 0-11.6l170.3-98.3c5.5-3.2 14.4-3.2 20 0 5.5 3.2 5.5 8.4 0 11.6z"/>
				<path id="&lt;Path&gt;" class="s0" d="m895.9 533.3l-49.8 28.8c-5.5 3.2-14.5 3.2-20 0-5.5-3.2-5.5-8.3 0-11.5l49.8-28.8c5.6-3.2 14.5-3.2 20 0 5.6 3.2 5.6 8.3 0 11.5z"/>
			</g>
			<g id="&lt;Group&gt;">
				<g id="&lt;Group&gt;">
					<path id="&lt;Path&gt;" class="s0" d="m385.2 629.7l-161.1 93c-5.2 3.1-13.7 3.1-19 0-5.2-3-5.2-7.9 0-10.9l161.1-93.1c5.2-3 13.7-3 19 0 5.2 3.1 5.2 8 0 11z"/>
					<path id="&lt;Path&gt;" class="s0" d="m509.6 557.8l-85.1 49.2c-5.3 3-13.8 3-19 0-5.2-3-5.2-7.9 0-11l85.1-49.1c5.3-3.1 13.7-3.1 19 0 5.2 3 5.2 7.9 0 10.9z"/>
				</g>
				<path id="&lt;Path&gt;" class="s0" d="m432.9 553.3l-161.1 93c-5.2 3.1-13.7 3.1-18.9 0-5.2-3-5.2-7.9 0-10.9l161.1-93.1c5.2-3 13.7-3 18.9 0 5.2 3.1 5.2 8 0 11z"/>
				<path id="&lt;Path&gt;" class="s0" d="m638.9 434.3l-161.1 93.1c-5.2 3-13.7 3-19 0-5.2-3.1-5.2-8 0-11l161.1-93c5.2-3.1 13.7-3.1 19 0 5.2 3 5.2 7.9 0 10.9z"/>
				<path id="&lt;Path&gt;" class="s0" d="m731.4 478.5l-161.1 93.1c-5.2 3-13.7 3-19 0-5.2-3.1-5.2-8 0-11l161.1-93c5.2-3 13.7-3 19 0 5.2 3 5.2 7.9 0 10.9z"/>
				<path id="&lt;Path&gt;" class="s0" d="m427.4 654.1l-47.1 27.2c-5.3 3.1-13.7 3.1-19 0-5.2-3-5.2-7.9 0-10.9l47.2-27.2c5.2-3.1 13.7-3.1 18.9 0 5.2 3 5.2 7.9 0 10.9z"/>
				<path id="&lt;Path&gt;" class="s0" d="m831.6 420.6l-47.1 27.2c-5.3 3.1-13.7 3.1-19 0-5.2-3-5.2-7.9 0-10.9l47.2-27.2c5.2-3.1 13.7-3.1 18.9 0 5.2 3 5.2 7.9 0 10.9z"/>
				<path id="&lt;Path&gt;" class="s0" d="m464.9 486l-161 93c-5.3 3-13.7 3-19 0-5.2-3-5.2-7.9 0-10.9l161.1-93.1c5.2-3 13.7-3 18.9 0 5.3 3 5.3 7.9 0 11z"/>
				<path id="&lt;Path&gt;" class="s0" d="m565.2 428l-47.1 27.3c-5.3 3-13.8 3-19 0-5.2-3-5.2-7.9 0-11l47.2-27.2c5.2-3 13.7-3 18.9 0 5.2 3 5.2 7.9 0 10.9z"/>
			</g>
			<path id="&lt;Path&gt;" class="s2" d="m1130.1 774.6l-204.9 118.3c-25.4 14.7-66.6 14.7-92 0l-490.2-283c-25.4-14.6-25.4-38.4 0-53.1l205-118.3c25.4-14.7 66.6-14.7 92 0l490.1 283c25.5 14.6 25.5 38.4 0 53.1z"/>
			<g id="&lt;Group&gt;">
				<path id="&lt;Compound Path&gt;" class="s3" d="m324.4 504.5c2.9 3.8 6.9 6.7 10.9 9l492.8 284.7c5.7 3.3 11.9 5.6 18.5 7 6.4 1.4 13.2 2.1 20 2.2 13.5 0 27.3-2.8 38.5-9.2l234.5-135.5c6.6-3.8 13.8-10.4 15.5-17.8q0.4-1.9 0.4-3.8c0 15.2 0 19.7 0 34.9 0 9.6-7.4 17.3-15.9 22.2l-234.5 135.5q-8.6 5-18.5 7.1c-19.1 4-41.7 2.6-58.5-7.1l-492.8-284.6c-2.1-1.3-4.2-2.7-6.1-4.3-5.4-4.2-9.8-11.3-9.8-18.1 0-15.4 0-20.1 0-35.4 0.2 4.7 2.1 9.4 5 13.2z"/>
				<path id="&lt;Path&gt;" class="s4" d="m1042.2 729.9c1.5-0.9 2.8-1 3.8-0.5 1.2 0.5 1.9 1.9 1.9 3.8v2.5c0 3.7-2.6 8.2-5.7 10l-39.7 23c-1.6 0.9-3 1-4.1 0.4-1-0.6-1.7-1.9-1.7-3.8v-2.5c0-3.7 2.6-8.2 5.8-10z"/>
				<path id="&lt;Path&gt;" class="s4" d="m954.1 780.1c5.5-5.6 10.8-3.4 10.7 2.4-0.3 8.7-8.9 17.2-13.5 14.3q-1-0.6-1.6-1.7c-0.8-1.4-0.9-3-0.7-4.6 0.3-2 0.8-3.8 1.7-5.5q0 0 0 0 0.7-1 1.2-2.2 1-1.5 2.2-2.7z"/>
				<path id="&lt;Path&gt;" class="s5" d="m334 502.3c4.1 4.9 7.3 6.2 21.5 14.5 0.2 0.1 480.2 277.5 482.7 278.7 8.1 4 18.3 5.9 28.4 5.9v6c-6.8-0.1-13.6-0.8-20-2.2-6.6-1.4-12.8-3.7-18.5-7l-492.8-284.7c-4-2.3-8-5.2-10.9-9-2.9-3.8-4.8-8.5-5-13.2q-0.1-2.3 0.4-4.4c1.8-7.5 8.9-14 15.5-17.9l234.5-135.4c11.2-6.4 24.9-9.2 38.5-9.2v5.9c-5 0-10.2 0.5-15.2 1.6-10.1 2.1-15 5.2-22.6 9.7-7.7 4.6 17.4-10.2-88 50.7-17.2 9.9-34.3 20-51.4 29.9-17.2 9.9-34.4 19.6-51.5 29.7-7.2 4.1-14.3 8.4-21.4 12.4-8.4 4.8-16.2 8.9-20.2 12.1-9 7.2-11.3 17.1-4 25.9z"/>
				<g id="&lt;Group&gt;">
					<path id="&lt;Path&gt;" class="s5" d="m452.3 599.9l3.9-2.3-43.2-25-4 2.3z"/>
					<path id="&lt;Path&gt;" class="s6" d="m456.2 603v-5.4l-3.9 2.3v5.4z"/>
					<path id="&lt;Path&gt;" class="s6" d="m452.3 605.3v-5.4l-43.3-25v5.4z"/>
				</g>
				<path id="&lt;Path&gt;" class="s4" d="m928.8 803.1c0.9-0.4 1.5-1.6 1.5-2.5 0-1-0.6-1.3-1.5-0.8-0.8 0.4-1.5 1.6-1.5 2.5 0 1 0.7 1.3 1.5 0.8z"/>
				<g id="&lt;Group&gt;">
					<path id="&lt;Path&gt;" class="s4" d="m1127 696.9c1.3-0.8 2.3-2.6 2.3-4v-11.2c0-1.5-1-2.1-2.3-1.3-1.3 0.7-2.4 2.5-2.4 4v11.2c0 1.5 1.1 2 2.4 1.3z"/>
					<path id="&lt;Path&gt;" class="s4" d="m1117.6 702.3c1.2-0.7 2.3-2.5 2.3-4v-11.2c0-1.4-1.1-2-2.3-1.3-1.3 0.8-2.4 2.6-2.4 4v11.3c0 1.4 1.1 2 2.4 1.2z"/>
					<path id="&lt;Path&gt;" class="s4" d="m1108.1 707.8c1.3-0.8 2.4-2.6 2.4-4v-11.3c0-1.4-1.1-2-2.4-1.2-1.3 0.7-2.3 2.5-2.3 4v11.2c0 1.5 1 2 2.3 1.3z"/>
					<path id="&lt;Path&gt;" class="s4" d="m1098.7 713.2c1.3-0.7 2.3-2.5 2.3-4v-11.2c0-1.4-1-2-2.3-1.3-1.3 0.8-2.4 2.6-2.4 4v11.3c0 1.4 1.1 2 2.4 1.2z"/>
					<path id="&lt;Path&gt;" class="s4" d="m1089.3 718.7c1.3-0.8 2.3-2.6 2.3-4v-11.3c0-1.4-1-2-2.3-1.2-1.3 0.7-2.4 2.5-2.4 4v11.2c0 1.4 1.1 2 2.4 1.3z"/>
					<path id="&lt;Path&gt;" class="s4" d="m1079.8 724.1c1.3-0.7 2.4-2.5 2.4-4v-11.2c0-1.4-1.1-2-2.4-1.3-1.3 0.8-2.3 2.6-2.3 4v11.3c0 1.4 1 2 2.3 1.2z"/>
				</g>
				<path id="&lt;Path&gt;" class="s5" d="m1139.6 662.7l-234.5 135.5c-11.2 6.4-25 9.2-38.5 9.2v-6c9.1 0 18.1-1.6 25.8-4.8 4.6-1.9 8-4.1 12-6.5 7.7-4.6-17.4 10.2 88-50.7 17.2-9.9 34.3-20 51.4-29.9 17.2-9.9 34.4-19.6 51.5-29.6 7.2-4.2 14.3-8.4 21.5-12.5 14.2-8 20.9-11.1 25.3-17.4 5.7-8.3 4.4-19.2-9.8-27.6-0.5-0.3-493.3-285-495.6-286.1-7.8-3.8-17.9-6-28.4-6v-5.9c6.8 0 13.6 0.8 20 2.1 6.6 1.4 12.8 3.8 18.5 7.1l492.8 284.6c4.1 2.4 8 5.3 10.9 9.1 3 3.9 5 8.9 5 13.8q0 1.9-0.4 3.8c-1.7 7.4-8.9 14-15.5 17.8z"/>
				<g id="&lt;Group&gt;">
					<path id="&lt;Compound Path&gt;" class="s5" d="m645.8 341.5c-5.7-3.3-8.9-5.1-9.1-5.2-7.8-3.8-17.9-6-28.5-6-5 0-10.1 0.5-15.1 1.6-10.2 2.1-15.1 5.2-22.6 9.7-7.1 4.3 14.1-8.2-67.9 39.1l-20.1 11.6c-17.2 10-34.3 20-51.4 29.9q-7.1 4.1-14.1 8.1c-12.5 7.2-25 14.3-37.4 21.6-7.2 4.2-14.3 8.4-21.5 12.4-8.3 4.8-16.1 8.9-20.2 12.1-8.9 7.2-11.2 17.1-3.9 25.9 4.1 4.9 7.3 6.2 21.5 14.5l208.4 120.4c130 75.1 272.9 157.6 274.3 158.3 8.1 4 18.3 6 28.4 6 9 0 18.1-1.7 25.8-4.9 4.6-1.9 8-4 12-6.5 7.6-4.6-17.4 10.2 88-50.7 17.2-9.9 34.3-20 51.4-29.9 17.2-9.9 34.4-19.6 51.5-29.6 7.2-4.2 14.3-8.4 21.5-12.5 14.2-8 20.8-11.1 25.2-17.4 5.6-7.9 4.5-18.3-8.1-26.6q-0.8-0.5-1.6-1c-0.5-0.3-419.1-242.1-486.5-280.9z"/>
					<path id="&lt;Path&gt;" class="s7" d="m1133.9 623.4c12.6 8.3 13.7 18.7 8.1 26.6-4.4 6.3-11 9.4-25.2 17.4-7.2 4.1-14.3 8.3-21.5 12.5-17.1 10-34.3 19.7-51.5 29.6-17.1 9.9-34.2 20-51.4 29.9-105.4 60.9-80.4 46.1-88 50.7-4 2.5-7.4 4.6-12 6.5-16.5 6.9-39 6.3-54.2-1.1-2.3-1.1-419.6-242.3-482.7-278.7-14.2-8.3-17.4-9.6-21.5-14.5-7.3-8.8-5-18.7 3.9-25.9 4.9-3.9 225.7-130.6 232.6-134.8 7.5-4.5 12.4-7.6 22.6-9.7 15.5-3.3 32.2-1.2 43.6 4.4 0.3 0.1-13-7.6 497.2 287.1z"/>
				</g>
				<g id="&lt;Group&gt;">
					<path id="&lt;Path&gt;" class="s8" d="m492.5 399.2c2.1-1.3 5.6-1.3 7.7 0l2.9 1.6-52.2 30.2c-2.2 1.2-5.6 1.2-7.8 0l-2.8-1.7z"/>
					<path id="&lt;Path&gt;" class="s9" d="m500.2 393.9l3.6 2c2.2 1.3 2.1 3.3 0 4.5l-0.7 0.4-2.9-1.6c-2.1-1.3-5.6-1.3-7.7 0l-52.2 30.1-0.7-0.4c-1.1-0.6-1.6-1.4-1.6-2.2q0 0 0 0c0-0.8 0.5-1.6 1.6-2.2l52.9-30.6c2.1-1.3 5.6-1.3 7.7 0z"/>
				</g>
			</g>
			<g id="&lt;Group&gt;" style="opacity: .3">
				<path id="&lt;Path&gt;" class="s10" d="m545.9 456l-106.9 61.8c-3.4 2-9.1 2-12.5 0-3.5-2-3.5-5.3 0-7.3l106.8-61.7c3.5-2 9.1-2 12.6 0 3.5 2 3.5 5.2 0 7.2z"/>
				<path id="&lt;Path&gt;" class="s10" d="m538.7 489.2l-74.5 43.1c-3.5 2-9.1 2-12.6 0-3.5-2-3.5-5.3 0-7.3l74.6-43.1c3.4-2 9.1-2 12.5 0 3.5 2 3.5 5.3 0 7.3z"/>
				<path id="&lt;Path&gt;" class="s10" d="m563.9 503.7l-74.6 43.1c-3.5 2-9.1 2-12.6 0-3.4-2-3.4-5.3 0-7.3l74.6-43c3.5-2 9.1-2 12.6 0 3.4 2 3.4 5.2 0 7.2z"/>
			</g>
			<g id="&lt;Group&gt;" style="opacity: .3">
				<path id="&lt;Path&gt;" class="s10" d="m710.1 559.7l-106.8 61.7c-3.5 2-9.1 2-12.6 0-3.5-2-3.5-5.2 0-7.2l106.9-61.8c3.4-2 9.1-2 12.5 0 3.5 2 3.5 5.3 0 7.3z"/>
				<path id="&lt;Path&gt;" class="s10" d="m703 592.9l-74.6 43.1c-3.5 2-9.1 2-12.6 0-3.5-2.1-3.5-5.3 0-7.3l74.6-43.1c3.5-2 9.1-2 12.6 0 3.4 2 3.4 5.3 0 7.3z"/>
				<path id="&lt;Path&gt;" class="s10" d="m728.1 607.4l-74.6 43.1c-3.5 2-9.1 2-12.6 0-3.4-2-3.4-5.3 0-7.3l74.6-43.1c3.5-2 9.1-2 12.6 0 3.5 2 3.5 5.3 0 7.3z"/>
			</g>
			<g id="&lt;Group&gt;" style="opacity: .3">
				<path id="&lt;Path&gt;" class="s10" d="m928.9 530l-106.8 61.7c-3.5 2-9.1 2-12.6 0-3.5-2-3.5-5.2 0-7.2l106.9-61.8c3.4-2 9.1-2 12.5 0 3.5 2 3.5 5.3 0 7.3z"/>
				<path id="&lt;Path&gt;" class="s10" d="m921.8 563.2l-74.6 43c-3.5 2.1-9.1 2.1-12.6 0-3.4-2-3.4-5.2 0-7.2l74.6-43.1c3.5-2 9.1-2 12.6 0 3.4 2 3.4 5.3 0 7.3z"/>
				<path id="&lt;Path&gt;" class="s10" d="m946.9 577.7l-74.6 43.1c-3.4 2-9.1 2-12.5 0-3.5-2-3.5-5.3 0-7.3l74.5-43.1c3.5-2 9.1-2 12.6 0 3.5 2 3.5 5.3 0 7.3z"/>
			</g>
			<g id="&lt;Group&gt;" style="opacity: .3">
				<path id="&lt;Path&gt;" class="s10" d="m906 667.3l-106.9 61.7c-3.4 2-9.1 2-12.5 0-3.5-2-3.5-5.2 0-7.3l106.8-61.7c3.5-2 9.1-2 12.6 0 3.5 2 3.5 5.3 0 7.3z"/>
				<path id="&lt;Path&gt;" class="s10" d="m898.8 700.4l-74.5 43.1c-3.5 2-9.1 2-12.6 0-3.5-2-3.5-5.2 0-7.2l74.6-43.1c3.4-2 9.1-2 12.5 0 3.5 2 3.5 5.2 0 7.2z"/>
				<path id="&lt;Path&gt;" class="s10" d="m924 715l-74.6 43c-3.5 2-9.1 2-12.6 0-3.4-2-3.4-5.2 0-7.2l74.6-43.1c3.5-2 9.1-2 12.6 0 3.4 2 3.4 5.3 0 7.3z"/>
			</g>
			<g id="&lt;Group&gt;" style="opacity: .3">
				<path id="&lt;Path&gt;" class="s11" d="m754.4 425.6l-106.9 61.7c-3.5 2-9.1 2-12.6 0-3.4-2-3.4-5.3 0-7.3l106.9-61.7c3.5-2 9.1-2 12.6 0 3.4 2 3.4 5.3 0 7.3z"/>
				<path id="&lt;Path&gt;" class="s11" d="m747.2 458.7l-74.6 43.1c-3.4 2-9.1 2-12.5 0-3.5-2-3.5-5.2 0-7.2l74.5-43.1c3.5-2 9.1-2 12.6 0 3.5 2 3.5 5.2 0 7.2z"/>
				<path id="&lt;Path&gt;" class="s11" d="m772.3 473.3l-74.5 43c-3.5 2-9.1 2-12.6 0-3.5-2-3.5-5.2 0-7.2l74.6-43.1c3.4-2 9.1-2 12.5 0 3.5 2 3.5 5.2 0 7.3z"/>
			</g>
			<g id="&lt;Group&gt;">
				<path id="&lt;Path&gt;" class="s12" d="m436 179.1q0 29.7 0 59.3c0 20.8-14.6 46-32.5 56.4q-3.8 2.2-7.6 4.4l-18.1 43.5-18.1-22.6q-3.8 2.2-7.6 4.4-1.1 0.6-2.2 1.2c-8.1 4-15.4 4.2-20.8 1.1q-0.2-0.2-0.4-0.3c-5.7-3.5-9.1-10.7-9.1-20.8q0-29.7 0-59.3c0-20.8 14.6-46.1 32.5-56.4q25.7-14.9 51.4-29.7c8.8-5.1 16.8-5.7 22.6-2.5q0.2 0.1 0.4 0.2c5.9 3.4 9.5 10.7 9.5 21.1z"/>
				<path id="&lt;Path&gt;" class="s13" d="m302.7 311.5c-5.9-3.4-9.5-10.7-9.5-21.1q0-29.6 0-59.3c0-20.8 14.5-46 32.5-56.4q25.7-14.8 51.3-29.6c9-5.2 17.2-5.7 23.1-2.3q13 7.5 26 15c-5.8-3.2-13.8-2.6-22.6 2.5q-25.7 14.8-51.4 29.7c-17.9 10.3-32.5 35.6-32.5 56.4q0 29.6 0 59.3c0 10.1 3.4 17.3 9.1 20.8q-13-7.5-26-15z"/>
				<path id="&lt;Path&gt;" class="s13" d="m359.7 320.1l18.1 22.6-26.4-15.2-1.5-1.8q1.1-0.6 2.2-1.2 3.8-2.2 7.6-4.4z"/>
				<path id="&lt;Compound Path&gt;" fill-rule="evenodd" class="s14" d="m394.7 246.6l12.4 11.2c1.5 1.3 0.9 4.5-1.2 7.1-2.1 2.6-4.9 3.7-6.4 2.5l-12.4-11.2c-9.1 8.8-20 11.8-26 6.4-6.8-6.1-4.5-21 5.2-33.2 9.7-12.2 23.1-17.1 30-11 6 5.4 5 17.2-1.6 28.2zm-2.6-22.8c-5.3-4.7-15.5-1-22.8 8.3-7.4 9.2-9.1 20.5-3.9 25.2 5.2 4.7 15.4 1 22.8-8.3 7.3-9.3 9.1-20.6 3.9-25.2z"/>
			</g>
			<path id="&lt;Path&gt;" class="s0" d="m314.6 336.5c7.7 4.4 7.7 11.7 0 16.1-7.7 4.4-20.1 4.4-27.8 0-7.7-4.4-7.7-11.7 0-16.1 7.7-4.4 20.1-4.4 27.8 0z"/>
			<path id="&lt;Path&gt;" class="s0" d="m1219.5 305.7c7.7 4.5 7.7 11.7 0 16.1-7.7 4.4-20.2 4.4-27.9 0-7.6-4.4-7.6-11.6 0-16.1 7.7-4.4 20.2-4.4 27.9 0z"/>
			<g id="&lt;Group&gt;">
				<path id="&lt;Path&gt;" class="s15" d="m320.9 403.6l2.9 4.1c0.2 0.4 0.7 0.4 1.2 0.2l6.3-2.7c1.3-0.6 1.9 0.7 0.9 2.2l-4.6 7.1c-0.4 0.6-0.5 1.2-0.4 1.7l1 5.7c0.3 1.2-1.1 3-2.3 3l-5.7 0.3c-0.4 0-1 0.4-1.5 0.9l-5.6 6.3c-1.2 1.3-2.6 1-2.4-0.4l1.1-6.9c0.1-0.6-0.1-1-0.4-1.2l-4.6-1.8c-1-0.4-0.5-2.3 0.9-3.3l6.3-4.6c0.5-0.3 1-0.9 1.2-1.5l2.9-7.4c0.5-1.6 2.2-2.5 2.8-1.7z"/>
				<path id="&lt;Path&gt;" class="s15" d="m353.2 385l2.8 4.1c0.2 0.3 0.7 0.4 1.2 0.2l6.4-2.8c1.3-0.5 1.8 0.8 0.8 2.3l-4.5 7.1c-0.4 0.6-0.6 1.2-0.5 1.7l1.1 5.7c0.2 1.2-1.2 3-2.3 3l-5.7 0.3c-0.5 0-1.1 0.3-1.5 0.9l-5.7 6.2c-1.2 1.3-2.5 1.1-2.3-0.3l1.1-7c0.1-0.5-0.1-1-0.5-1.1l-4.6-1.8c-0.9-0.4-0.4-2.3 0.9-3.3l6.3-4.6c0.6-0.4 1-1 1.2-1.6l2.9-7.4c0.6-1.5 2.3-2.5 2.9-1.6z"/>
				<path id="&lt;Path&gt;" class="s15" d="m385.4 366.4l2.8 4.1c0.3 0.3 0.7 0.4 1.2 0.2l6.4-2.8c1.3-0.6 1.8 0.8 0.9 2.2l-4.6 7.2c-0.4 0.6-0.6 1.2-0.5 1.7l1.1 5.7c0.2 1.1-1.1 2.9-2.3 3l-5.7 0.3c-0.5 0-1 0.3-1.5 0.8l-5.7 6.3c-1.1 1.3-2.5 1.1-2.3-0.3l1.1-7c0.1-0.6-0.1-1-0.5-1.1l-4.6-1.9c-0.9-0.3-0.4-2.3 0.9-3.2l6.4-4.6c0.5-0.4 1-1 1.2-1.6l2.8-7.4c0.6-1.5 2.3-2.5 2.9-1.6z"/>
				<path id="&lt;Path&gt;" class="s16" d="m417.6 347.7l2.9 4.2c0.2 0.3 0.7 0.4 1.2 0.1l6.3-2.7c1.3-0.6 1.9 0.7 0.9 2.2l-4.6 7.2c-0.4 0.5-0.5 1.2-0.4 1.6l1 5.7c0.3 1.2-1.1 3-2.3 3.1l-5.7 0.3c-0.4 0-1 0.3-1.5 0.8l-5.6 6.3c-1.2 1.3-2.6 1.1-2.4-0.4l1.1-6.9c0.1-0.6-0.1-1-0.4-1.2l-4.6-1.8c-1-0.4-0.5-2.3 0.9-3.2l6.3-4.6c0.5-0.4 1-1 1.2-1.6l2.9-7.4c0.5-1.5 2.2-2.5 2.8-1.7z"/>
				<path id="&lt;Path&gt;" class="s16" d="m449.9 329.1l2.8 4.1c0.2 0.4 0.7 0.4 1.2 0.2l6.4-2.7c1.3-0.6 1.8 0.7 0.9 2.2l-4.6 7.1c-0.4 0.6-0.6 1.2-0.5 1.7l1.1 5.7c0.2 1.2-1.2 3-2.3 3l-5.7 0.3c-0.5 0.1-1.1 0.4-1.5 0.9l-5.7 6.3c-1.2 1.3-2.5 1.1-2.3-0.4l1.1-6.9c0.1-0.6-0.1-1-0.5-1.2l-4.6-1.8c-0.9-0.4-0.4-2.3 0.9-3.3l6.3-4.5c0.6-0.4 1-1 1.3-1.6l2.8-7.4c0.6-1.6 2.3-2.5 2.9-1.7z"/>
			</g>
			<g id="&lt;Group&gt;">
				<path id="&lt;Path&gt;" class="s15" d="m794.8 78.4q0 24.5 0 49c0 17.2 12.1 38.1 27 46.7q3.1 1.8 6.2 3.6l15 36 14.9-18.7q3.2 1.8 6.3 3.6 0.9 0.5 1.8 1c6.7 3.3 12.8 3.5 17.2 0.9q0.2-0.1 0.4-0.2c4.7-2.9 7.5-8.9 7.5-17.2q0-24.6 0-49.1c0-17.2-12-38.1-26.9-46.6q-21.2-12.3-42.4-24.6c-7.3-4.2-13.9-4.6-18.8-2q-0.1 0.1-0.3 0.2c-4.8 2.8-7.9 8.8-7.9 17.4z"/>
				<path id="&lt;Path&gt;" class="s17" d="m905.1 187.9c4.8-2.8 7.8-8.9 7.8-17.5q0-24.5 0-49c0-17.2-12-38.1-26.9-46.7q-21.2-12.2-42.4-24.5c-7.4-4.3-14.2-4.7-19-1.9q-10.8 6.3-21.6 12.5c4.9-2.6 11.5-2.2 18.8 2q21.2 12.3 42.4 24.6c14.9 8.5 26.9 29.4 26.9 46.6q0 24.5 0 49.1c0 8.3-2.8 14.3-7.5 17.2q10.7-6.2 21.5-12.4z"/>
				<path id="&lt;Path&gt;" class="s17" d="m857.9 195l-14.9 18.7 21.8-12.6 1.2-1.5q-0.9-0.5-1.8-1-3.1-1.8-6.3-3.6z"/>
				<g id="&lt;Group&gt;">
					<path id="&lt;Compound Path&gt;" fill-rule="evenodd" class="s18" d="m846.5 115.5c0.5 0.3 0.9 0.8 1.3 1.3l1.2 2 6.8 3.9c2.7 1.5 4.9 4.8 5.3 7.6l0.6 4.7-3.6-2.1-0.5-4.1c-0.1-1-0.9-2.1-1.8-2.6l-7.5-4.3c-0.5-0.3-0.9-0.7-1.3-1.3l-1.2-1.9-5.6-3.3-1.3 0.5c-0.3 0.2-0.8 0.1-1.2-0.2l-7.6-4.3c-0.9-0.5-1.6-0.3-1.7 0.5l-0.6 3.5-3.6-2.1 0.6-3.9c0.4-2.4 2.7-3.1 5.3-1.6l6.8 4 1.3-0.6c0.3-0.1 0.8 0 1.2 0.2zm17.7 24.5c1 0.5 1.8 1.8 1.8 2.8v3.5c0 1-0.8 1.3-1.8 0.7l-0.2-0.1-2.8 14.9c-0.3 1.6-1.8 2-3.5 1l-29.4-17c-1.8-1-3.2-3.1-3.5-5l-2.8-18.1-0.3-0.2c-0.9-0.6-1.7-1.8-1.7-2.8v-3.6c0-0.9 0.8-1.3 1.7-0.7zm-14.1 2.4v8.9c0 1 0.8 2.2 1.7 2.8 1 0.6 1.8 0.2 1.8-0.7v-8.9c0-1-0.8-2.2-1.8-2.8-0.9-0.6-1.7-0.2-1.7 0.7zm-8.9-5.1v8.9c0 1 0.8 2.2 1.8 2.8 1 0.5 1.7 0.2 1.7-0.8v-8.8c0-1-0.7-2.3-1.7-2.8-1-0.6-1.8-0.3-1.8 0.7zm-8.9-5.1v8.9c0 0.9 0.8 2.2 1.8 2.8 1 0.5 1.8 0.2 1.8-0.8v-8.8c0-1-0.8-2.3-1.8-2.8-1-0.6-1.8-0.3-1.8 0.7z"/>
				</g>
			</g>
			<path id="&lt;Path&gt;" class="s19" d="m945.1 623.4l-112.9 65.1c-11.1 6.5-29.2 6.5-40.4 0l-207.3-119.6c-11.1-6.5-11.1-16.9 0-23.4l112.9-65.1c11.2-6.5 29.2-6.5 40.4 0l207.3 119.6c11.1 6.5 11.1 16.9 0 23.4z"/>
			<g id="&lt;Group&gt;">
				<path id="&lt;Compound Path&gt;" fill-rule="evenodd" class="s20" d="m1022.3 708.4c-20.7 13.8-52.8 16.1-77.2 9.7-11.8-3.1-25-9.2-32.6-18.8-8.3-10.5-7.8-22.1 0-31.9 19-24.1 74-29.9 106.8-11.1q0 0 0 0c5 2.9 9.7 6.5 13.3 11 11.6 14.7 5.7 30.6-10.3 41.1zm-59.6-36l28.7 16.6 3.5-2v-3.3l-7.1-4.2 16.5 2.1 4.4-2.5v-3.4l-21.8-2.4c0.2-7 0.1-4.9 0.1-9.1l-4.5 2.6c0 4.2 0 2 0 9.7l-16.3-9.4-3.5 2zm16 13.1c-2.7-4.7-10-7.9-15.5-9-7.1-1.4-14.2-0.1-19.3 2.8q-5.8 3.4-5.8 7.8 0 1.6 0 3.3c0 4 3.9 7 7.3 9 4.9 2.8 12 4.5 19.1 3.5 5.3-0.7 12-3.4 14.4-8.1q0.7-1.4 0.7-2.7 0-1.7 0-3.4 0-1.5-0.9-3.2z"/>
				<g id="&lt;Group&gt;">
					<path id="&lt;Path&gt;" class="s21" d="m891.9 679.4c3.6 4.6 8.3 8.2 13.4 11.1 22.5 12.9 55.9 14.3 80.8 5.6 9.6-3.3 19.7-8.8 26-16.7 3.6-4.7 5.9-9.9 6-16q0 8.6 0 17.2c0 14-12.5 24.3-25.2 30.1-24 10.9-58 10.9-82-0.1-12.7-5.8-25-16.1-25-30q0-8.5 0-17.1c0 6 2.4 11.4 6 15.9z"/>
					<path id="&lt;Path&gt;" class="s22" d="m988.1 655.9v3.3l-4.4 2.5v-3.3z"/>
					<path id="&lt;Path&gt;" class="s22" d="m983.7 658.4v3.3l-16.5-2-1-0.6v-2.9z"/>
					<path id="&lt;Path&gt;" class="s22" d="m974.3 663.8v3.3l-3.5 2.1v-3.4z"/>
					<path id="&lt;Path&gt;" class="s22" d="m970.8 665.8v3.4l-28.7-16.6v-3.4z"/>
					<path id="&lt;Path&gt;" class="s23" d="m974.3 663.8l-3.5 2-28.7-16.6 3.5-2 16.3 9.4c0.1 0.1 0.1 0.8 0-9.7l4.5-2.6-0.2 9.1c1.8 0.1-6.1-0.7 21.9 2.5l-4.4 2.5-17.5-2.2-0.1 2.8c0.1 0.1 0.7 0.4 8.2 4.8z"/>
					<path id="&lt;Compound Path&gt;" fill-rule="evenodd" class="s24" d="m1001.7 688.6c-20.7 13.7-52.8 16-77.2 9.6-11.8-3.1-25-9.2-32.6-18.8-8.3-10.5-7.8-22.1 0-31.9 19-24.1 74-29.9 106.8-11.1q0 0 0 0c5 2.9 9.7 6.5 13.3 11.1 11.6 14.6 5.7 30.5-10.3 41.1zm-59.6-36l28.7 16.6 3.5-2.1v-3.3l-7.1-4.1 16.5 2 4.4-2.5v-3.3l-21.8-2.5c0.2-7 0.1-4.9 0.1-9.1l-4.5 2.6c0 4.2 0 2.1 0 9.7l-16.3-9.4-3.5 2zm16 13.2c-2.7-4.8-10-8-15.5-9.1-7.1-1.4-14.2-0.1-19.3 2.8q-5.8 3.4-5.8 7.8 0 1.7 0 3.3c0 4 3.9 7 7.3 9 4.9 2.8 12 4.5 19.1 3.5 5.3-0.7 12-3.4 14.4-8.1q0.7-1.3 0.7-2.7 0-1.7 0-3.3 0-1.6-0.9-3.2z"/>
					<path id="&lt;Compound Path&gt;" fill-rule="evenodd" class="s23" d="m959 668.9c0 3.3-3 6.1-5.9 7.8-8.3 4.7-20.1 4.2-28.3-0.5-3.4-2-7.3-5-7.3-9q0-4.3 5.8-7.8c8-4.6 19.6-4.5 28.7 0.7 3.3 1.9 7 5 7 8.8zm-5.1 0.6c0.1-3.1-3.1-5.5-5.8-7.1-7.8-4.5-16.2-4.1-21.5-1.1q-4 2.4-4.1 5.7c-0.2 2.9 3.8 5.5 6.3 7 7.3 4.2 15.7 3.9 21 0.8 2.1-1.2 4-2.9 4.1-5.3z"/>
					<path id="&lt;Path&gt;" class="s24" d="m948.1 665.7q4.4 2.6 5.5 5.3c-2 4.9-13.9 9.3-24.8 3q-4.9-2.8-6-5.4c2-5.1 13.8-9.5 25.3-2.9z"/>
					<path id="&lt;Path&gt;" class="s22" d="m953.9 669c0 0.6-0.1 1.3-0.3 2q-1.1-2.7-5.5-5.3c-11.5-6.6-23.3-2.3-25.3 2.9q-0.4-0.8-0.3-1.6 0.1-3.3 4.1-5.7c5.4-3 13.7-3.4 21.5 1.1q5.5 3.2 5.8 6.6z"/>
					<path id="&lt;Path&gt;" class="s22" d="m924.8 676.2c8.1 4.7 19.9 5.3 28.3 0.5 2.9-1.7 5.9-4.5 5.9-7.8q0 1.6 0 3.3 0 1.4-0.7 2.7c-2.4 4.7-9.1 7.4-14.4 8.1-7.1 1-14.2-0.6-19.1-3.5-3.4-1.9-7.3-5-7.3-9q0-1.6 0-3.3c0 4 3.9 7 7.3 9z"/>
				</g>
			</g>
			<g id="&lt;Group&gt;">
				<path id="&lt;Path&gt;" class="s5" d="m731.1 432.6l65.1-39.4-7.5-3.3-65.9 38.2z"/>
				<path id="&lt;Path&gt;" class="s5" d="m694.6 410.2l65.1-39.4-7.5-3.3-65.9 38.2z"/>
				<path id="&lt;Path&gt;" class="s17" d="m636.5 339.2l5.2 38.8 33-16.7z"/>
				<path id="&lt;Path&gt;" class="s17" d="m621.9 206.6v108.8c2.9 1.7 65.6 37.6 65.6 37.6l24.5-13.3 1.7-108.1v-48.5-15.4-14.2z"/>
				<path id="&lt;Path&gt;" class="s5" d="m617.6 58.9c9.7 7.1 18.4 20.2 21.5 33.2q6.3 25.6 12.5 51.2l10.4-6q-5.9-24-11.7-48c-3.7-15.2-13.7-30.8-25.9-39.6q0-0.1 0-0.1-9.9-7.1-19.7-14.3 0 0 0 0c-17.2-12.8-46.2-15.1-64-4.6q0 0 0 0-22.1 12.7-44.1 25.5-22.1 12.7-44.2 25.5 0 0 0 0c-9.1 5.1-15.5 13.9-14.9 24.2 0.5 9.4 6.5 17.6 14.1 23.1q0 0 0 0 9.9 7.2 19.7 14.4c9.6 7 18.4 20 21.5 33.1q8 32.5 15.9 65c0-0.1 0.4-0.1 0.5-0.1 1.3 0 3.5 0.4 4.8 0.8 1.9 0.4 3.3 0.9 4.3 0.6 1.4-0.5 1.9-2.7 1.5-4.3q-0.4-1.7-0.8-3.3-7.5-30.7-15-61.4c-3.7-15.3-13.7-30.9-25.9-39.7q-9.9-7.2-19.7-14.4c-5.7-4.1-10.7-10.6-9.2-17.4 1-4.6 4.8-8.3 8.9-10.7q22.1-12.7 44.2-25.5 22.1-12.7 44.2-25.5c13.5-7.9 37.4-6.4 51.4 3.9q9.8 7.2 19.7 14.4z"/>
				<path id="&lt;Path&gt;" class="s5" d="m548.7 233.4q-3.5 2-6.9 3.9 2 17.1 4 34.1 3.9 2.3 7.8 4.6-2.5-21.3-4.9-42.6z"/>
				<path id="&lt;Path&gt;" class="s5" d="m562.2 346.4q-4-2.3-8-4.6c1.5 6.7 5.2 13.1 9.8 17.7q-0.9-6.5-1.8-13.1z"/>
				<path id="&lt;Path&gt;" class="s5" d="m582 265.8q-11.5 6.6-23 13.3 6.6 3.8 13.3 7.6 4.8-2.8 9.7-5.6z"/>
				<path id="&lt;Path&gt;" class="s5" d="m559.2 323.4q-1.8-13.5-3.6-27-3.3 1.8-6.5 3.7 1.5 12.6 3 25.1 3.9 2.3 7.9 4.6-0.4-3.2-0.8-6.4z"/>
				<path id="&lt;Compound Path&gt;" fill-rule="evenodd" class="s5" d="m630.6 390.8v1l6.1 3.5q0.5 4 1.1 8-18.3-10.5-36.5-21.1-4.2 2.4-8.3 4.8c-1.8 1.4-9.4 5.3-11.6 5.8q-0.6 0.1-1.3 0.2c-7 0.9-12.2-3.7-13.2-11.1q-1.4-11.2-2.9-22.4-0.9-6.5-1.8-13.1 4 2.3 8 4.6 0.3 2.5 0.6 5 1.2 1 2.6 1.8 13.9 8 27.9 16.1 2.1-1.2 4.2-2.5 3.6 2.1 7.2 4.2-2.1 1.2-4.2 2.5 11.1 6.3 22.1 12.7zm-56.5-9.8c0.2 1.3 0.7 2.9 1.7 3.9 1.5 1.4 3.8 1.1 5.7 0.3 10.1-5.7 7.4-4.2 12.5-7.1q-11-6.4-21.9-12.7 1 7.8 2 15.6z"/>
				<path id="&lt;Path&gt;" class="s5" d="m562.4 338.3c1.4 0.5 3.4-0.5 4.6-1.4 0.6-0.4 1.2-1 1.1-1.5q-0.1-0.5-0.2-1-2.5-18.9-5-37.7-4-2.3-7.9-4.6 0.3 2.1 0.6 4.3 1.8 13.5 3.6 27 0.4 3.2 0.8 6.4 0.4 3.3 0.9 6.5 0 0.1 0 0.1c0.1 0.9 0.6 1.6 1.5 1.9z"/>
				<path id="&lt;Path&gt;" class="s15" d="m582 307.7v34.8q19.9 11.5 39.9 23v-34.8q-20-11.5-39.9-23z"/>
				<path id="&lt;Path&gt;" class="s15" d="m582 281.1v11.2q19.9 11.6 39.9 23.1v-108.8l-39.9-23.1v15.3 15.3 51.7z"/>
				<path id="&lt;Path&gt;" class="s15" d="m582 183.5l39.9 23.1 91.8-53.1-39.9-23-11.8 6.8-10.4 6z"/>
				<path id="&lt;Path&gt;" class="s15" d="m586.6 183.5l87.2-50.4 35.4 20.4-87.3 50.4z"/>
				<path id="&lt;Path&gt;" class="s25" d="m594 568.6h0.1q4.3-2.5 8.7-5.1c1.3-0.7 2.4-1.9 3.2-3.3 2.2-3.8 2-9.3 1-13.6q-4.8-2.8-9.7-5.6l0.1 8.6c2.8 9.3 1 16.2-3.4 19z"/>
				<path id="&lt;Path&gt;" class="s26" d="m565 538.3c0 10.3 6.9 22.8 15.8 28.6 5.3 3.4 10 3.7 13.2 1.7 4.4-2.8 6.2-9.7 3.4-19l0.2 7.2-1.4 0.8-30.1-17.4-0.1-7.8c-0.7 1.8-1 3.9-1 5.9z"/>
				<path id="&lt;Path&gt;" class="s17" d="m599.3 531.3c1.2-1.3 3.2-2.8 5-2.7 0.5 0 1 0.2 1.4 0.4q-15-8.7-30.1-17.4c-0.9-0.5-2.2-0.4-3.3 0.1q-0.3 0.1-0.6 0.3c-2.9 1.5-6 6.1-5.9 10.1v0.7l0.2 9.6 0.1 7.8 30.1 17.4-0.3-18.1c0-2.9 1.5-6.1 3.4-8.2z"/>
				<path id="&lt;Path&gt;" class="s27" d="m604.3 528.6c-1.8-0.1-3.8 1.4-5 2.7-1.9 2.1-3.4 5.3-3.4 8.2l0.3 18.1 1.4-0.8-0.2-7.2-0.1-8.6-0.1-3.4c0.2-0.9 0.3-1.4 0.7-2.4 0.9-2 2.6-4.1 4.6-4.8 1.4-0.5 2-0.1 2.4 0q0 0 0 0 1.2 0.7 2.5 1.5c-0.1-0.8-0.4-1.7-0.9-2.3q-0.4-0.3-0.8-0.6c-0.4-0.2-0.9-0.4-1.4-0.4z"/>
				<path id="&lt;Path&gt;" class="s17" d="m621.9 330.7v34.8q4.3 2.6 8.7 5.1v-21.1q-1-7.5-2-14.9-3.4-1.9-6.7-3.9z"/>
				<path id="&lt;Path&gt;" class="s17" d="m630.6 349.5v21.1q1.5 0.8 3 1.7-1.5-11.4-3-22.8z"/>
				<path id="&lt;Path&gt;" class="s17" d="m682.2 465.2v8l30.1 17.4v-18.4c-2.8-1.7-4.5-5-4.5-9.3q0 0 0 0 0-4.7 0-9.3-7.9-4.6-15.8-9.2c-1-0.5-2.2-0.4-3.3 0.1q-0.4 0.1-0.7 0.3c-2.8 1.4-5.8 6-5.8 10v0.8z"/>
				<path id="&lt;Compound Path&gt;" fill-rule="evenodd" class="s5" d="m683 421.1q12.5 7.2 24.9 14.3 0 4.2 0 8.4-16.5-9.5-33-19-7.3 4.2-14.6 8.4c-9.5 5.6-18.5 1.2-19.7-8.8q-1.4-10.5-2.8-21.1-0.6-4-1.1-8-0.4-3.2-0.9-6.3 4 2.2 8 4.5 0.4 3.2 0.8 6.4l37.6 21.7zm-33.6 6.3c1.8 1.8 5 0.8 7.2-0.5 3.5-2 7.7-4.5 11-6.3q-11-6.4-22-12.7 1.1 7.8 2.1 15.6c0.2 1.4 0.7 2.9 1.7 3.9z"/>
				<path id="&lt;Path&gt;" class="s25" d="m718.9 496.5c1.3-0.7 2.3-1.8 3.1-3.1 2.4-3.9 2.1-9.7 1-14.2q-4.7-2.7-9.4-5.4v8.9c2.7 9.4 0.8 16.4-3.7 19q4.5-2.6 9-5.2z"/>
				<path id="&lt;Path&gt;" class="s27" d="m713.6 472.9q-0.7-0.3-1.3-0.7v18.4l1.3-0.8v-7.1-8.9z"/>
				<path id="&lt;Path&gt;" class="s26" d="m713.6 489.8l-1.3 0.8-30.1-17.4v-8c-0.8 1.9-1.1 4-1.1 6.1 0 10.3 6.9 22.7 15.8 28.5 5.1 3.4 9.7 3.8 13 1.9 4.5-2.6 6.4-9.6 3.7-19z"/>
				<path id="&lt;Path&gt;" class="s17" d="m722 461.8q-3.4-2-6.9-4 0 2.5 0 5.1 0 0 0 0 0 0.1 0 0.2c0 0.4 0 1 0.2 1.5 1-1.2 2.6-2.6 4.2-3 0.8-0.2 1.8-0.2 2.5 0.2z"/>
				<path id="&lt;Path&gt;" class="s5" d="m721.3 463.3c-0.6-0.4-1.3-0.4-2.1-0.2-1.4 0.3-2.6 1.4-3.5 2.5q0.1 0.2 0.2 0.3c0.2 0.2 0.5 0.4 1.1 0.4 1.6 0.1 3.8-0.8 5.2-1.6q0.4-0.2 0.7-0.4-0.8-0.5-1.6-1z"/>
				<path id="&lt;Path&gt;" class="s5" d="m721.3 611.9c-0.1-4 3-8.7 5.9-10.2q0.3-0.1 0.6-0.3-60.2-34.8-120.4-69.5-1.3-0.8-2.5-1.5 0 0 0 0c-0.4-0.1-1-0.5-2.4 0-2 0.7-3.7 2.8-4.6 4.8-0.4 1-0.5 1.5-0.7 2.4l0.1 3.4q4.9 2.8 9.7 5.6 57.2 33 114.3 66z"/>
				<path id="&lt;Compound Path&gt;" fill-rule="evenodd" class="s5" d="m707.8 462.9q0 0 0 0 0-4.7 0-9.3 0-4.9 0.1-9.8 0-4.2 0-8.4 0-2.4 0-4.8 3.6 2 7.2 4.1 0 2.5 0 4.9 12.6 7.3 25.3 14.6 2.1-1.2 4.2-2.5c2.6 1.5 5.7 2.6 8.9 3.3q-2.9 1.7-5.9 3.4 16.2 9.3 32.4 18.7c2.3 1.3 5.5 2.3 7.3 0.5 1-1 1.5-2.5 1.7-3.9q0.8-6.4 1.7-12.7 1.1-8.6 2.3-17.2 4-2.3 7.9-4.6-1.4 10.5-2.8 21.1-1 7.1-2 14.3c-1.2 10.1-10.2 14.3-19.7 8.8q0 0 0 0-18-10.4-36-20.8-5.1 2.9-10.2 5.8-2.2 1.3-4.4 2.6c-4.7 2.7-9 3.2-12.2 1.9q-0.7-0.3-1.3-0.7c-2.8-1.7-4.5-5-4.5-9.3zm15.7 1q4.8-2.8 9.6-5.5-9-5.2-18-10.4 0 4.9 0 9.8 0 2.5 0 5.1 0 0 0 0 0 0.1 0 0.2c0 0.4 0 1 0.2 1.5 0.1 0.4 0.2 0.8 0.4 1q0.1 0.2 0.2 0.3c0.2 0.2 0.5 0.4 1.1 0.4 1.6 0.1 3.8-0.8 5.2-1.6q0.4-0.2 0.7-0.4 0.3-0.2 0.6-0.4z"/>
				<path id="&lt;Path&gt;" class="s27" d="m715.7 465.6c0.9-1.1 2.1-2.2 3.5-2.5 0.8-0.2 1.5-0.2 2.1 0.2q0.8 0.5 1.6 1 0.3-0.2 0.6-0.4c-0.2-0.8-0.7-1.6-1.4-2.1q-0.1 0-0.1 0c-0.7-0.4-1.7-0.4-2.5-0.2-1.6 0.4-3.2 1.8-4.2 3 0.1 0.4 0.2 0.8 0.4 1z"/>
				<path id="&lt;Path&gt;" class="s5" d="m727.4 190.9c-1.4 11.7-9.5 89.8-10.8 101.5l6.6 4.2c1-8.9 10-92.8 11-101.7q-3.4-2-6.8-4z"/>
				<path id="&lt;Path&gt;" class="s25" d="m750 658.9q4.5-2.6 9-5.2c3.7-2.1 4.9-6.7 4.9-10.9 0-3.3-0.7-6.7-1.8-9.9-3-0.1-6.1-0.9-9.3-2.3l0.1 7c1.2 3.2 2 7 2 10.4 0 5.7-2 9.2-4.9 10.9z"/>
				<path id="&lt;Path&gt;" class="s26" d="m721.5 625c-2.1 11.1 6.5 27.5 17.5 33.2 1.9 1.1 4.1 1.8 6.4 1.9 1.6 0 3.2-0.4 4.6-1.2 2.9-1.7 4.9-5.2 4.9-10.9 0-3.4-0.8-7.2-2-10.4l0.2 9-1.4 0.8-30.1-17.4z"/>
				<path id="&lt;Path&gt;" class="s5" d="m752.8 630.6c3.2 1.4 6.3 2.2 9.3 2.3 11.7 0.6 20.5-8.4 20.4-22.9q0 0 0-0.1 0-0.4 0-0.8 0 0 0 0c0.1-14.4-8.4-31-19.3-40.6q-77.6-68.8-155.2-137.6c-9.1-8-15-21.3-15-30.9q0-6.5 0-13c-1.8 1.4-9.4 5.3-11.6 5.8q-0.6 0.1-1.3 0.2 0 3.5 0 7c-0.1 13.4 7.6 30.2 19.4 40.6q77.5 68.8 155.1 137.6c9 7.8 15.1 21.1 15 30.9q0 0.4 0 0.9c0 3.8-1 8.9-4.8 9.9-0.8 0.2-1.6 0.2-2.4 0.1-1-0.1-2-0.4-2.9-0.7-3.7 1.6-5.9 4.4-6.6 7.5q-0.2 0.8-0.2 1.6l0.1 2.2z"/>
				<path id="&lt;Path&gt;" class="s27" d="m762.4 620c-0.3-0.5-0.7-0.9-1.2-1.2q-0.2-0.2-0.5-0.3c-0.9-0.3-2-0.1-2.9 0.4-1.7 0.7-2.9 1.9-3.9 3.4-1.5 2-2.5 4.5-2.5 6.9l0.3 18.2 1.4-0.8-0.2-9-0.1-7-0.1-2.2q0-0.8 0.2-1.6c0.7-3.1 2.9-5.9 6.6-7.5 0.9 0.3 1.9 0.6 2.9 0.7z"/>
				<path id="&lt;Path&gt;" class="s17" d="m760.7 618.5q0.3 0.1 0.5 0.3-15-8.7-30.1-17.4c-0.9-0.6-2.2-0.4-3.3 0q-0.3 0.2-0.6 0.3c-2.9 1.5-6 6.2-5.9 10.2v0.7l0.2 12.4 0.1 5 30.1 17.4-0.3-18.2c0-2.4 1-4.9 2.5-6.9 1-1.5 2.2-2.7 3.9-3.4 0.9-0.5 2-0.7 2.9-0.4z"/>
				<path id="&lt;Path&gt;" class="s5" d="m795.5 286.7c-0.4-0.5-0.5-1-0.5-1.5q0 0 0 0 0.2-1.7 0.4-3.4c-3.1-1.8-68.3-36.5-71.4-38.3v9.9l58.1 32.4c3.7 0 11.5 1.7 15.2 2.2v-0.5c-0.8 0-1.4-0.3-1.8-0.8z"/>
				<path id="&lt;Path&gt;" class="s5" d="m797.3 288c5.7 0.7 11.2 2.1 16.2 4.2q-5.6-3.2-11.2-6.5 0 0.2 0 0.3h-0.1q0 0.1-0.2 0.3c-0.2 0.1-0.5 0.3-0.7 0.4-1.1 0.4-2.7 0.9-4 0.8z"/>
				<path id="&lt;Path&gt;" class="s5" d="m802.3 285.7q2.8-24.1 5.6-48.3-3.5-2-6.9-3.9-2.8 24.1-5.6 48.3-0.2 1.7-0.4 3.4 0 0 0 0c0 0.5 0.1 1 0.5 1.5 0.4 0.5 1 0.8 1.8 0.8 1.3 0.1 2.9-0.4 4-0.8 0.2-0.1 0.5-0.3 0.7-0.4q0.2-0.2 0.2-0.3h0.1q0-0.1 0-0.3z"/>
				<path id="&lt;Path&gt;" class="s5" d="m832.2 401.1q0 2.4 0 4.7 3.3-1.9 6.5-3.8 0.3-2.5 0.7-5-3.6 2.1-7.2 4.1z"/>
				<path id="&lt;Path&gt;" class="s5" d="m837.7 544.6c0-4 2.9-8.6 5.8-10.1q0.3-0.1 0.7-0.2v-0.1q-57-32.9-114-65.8-2.2 1.3-4.4 2.6c-4.7 2.7-9 3.2-12.2 1.9v0.9q4.7 2.7 9.4 5.4 57.3 33.1 114.7 66.2z"/>
				<path id="&lt;Path&gt;" class="s5" d="m856.3 376.4c-1.1 4.4-4.3 10.1-8.8 14.7q-0.4 3.2-0.9 6.4 5-2.9 9.9-5.8c3-3.9 5.7-8.8 6.8-13.6q3.7-14.6 7.3-29.2-4.3 2.5-8.7 5-2.8 11.2-5.6 22.5z"/>
				<path id="&lt;Path&gt;" class="s25" d="m875.1 586.7c3.7-2.1 4.9-6.6 4.9-10.9 0-2.5-0.3-4.9-1-7.3q-0.4-1.4-0.8-2.8c-2.9-0.1-6-0.9-9.1-2.3v7.3c1.2 3.2 2 6.9 2 10.3 0 5.6-2.1 9.2-5 10.9q4.5-2.6 9-5.2z"/>
				<path id="&lt;Path&gt;" class="s26" d="m837.7 557.9c-2.2 11.2 6.5 27.7 17.5 33.3 2 1.1 4.2 1.8 6.4 1.8 1.6 0 3.2-0.4 4.5-1.1 2.9-1.7 5-5.3 5-10.9 0-3.4-0.8-7.1-2-10.3v8.9l-1.4 0.8-30-17.4z"/>
				<path id="&lt;Path&gt;" class="s5" d="m799.9 447.6c20.2 17.9 50.9 45.5 71 63.4 9 7.9 15.1 21.1 15 30.9q0 0.5 0 0.9c0.1 3.8-1 8.9-4.7 9.9-0.8 0.2-1.7 0.2-2.5 0.1-1-0.1-2-0.3-2.9-0.7v0.1q-3.5 1.5-5.3 4.4c-0.8 1.3-1.4 3-1.4 4.6v2.2c3.1 1.4 6.2 2.2 9.1 2.3q0.4 0.1 0.9 0.1c11.3 0.2 19.9-8.7 19.8-23q0 0 0 0 0-0.5 0-0.9c0-14.6-8.6-31.1-19.4-40.6q-23.4-20.7-46.8-41.5c-3.6 1.6-8.1 1.2-12.8-1.5q0 0 0 0 0 0 0 0c-1.7-1-14.2-20.2-15.8-21.1l-3.2 2c-1.5 0.7 0.6 7.8-1 8.4z"/>
				<path id="&lt;Path&gt;" class="s5" d="m872.1 329.8c1.1-0.1 2.3-0.5 3-0.8 0.2-0.1 0.6-0.3 0.6-0.5q0.1-0.2 0.1-0.3 5.6-22.6 11.2-45.1-3.2-1.9-6.5-3.7-5.6 22.5-11.2 45-0.4 1.4-0.7 2.8c-0.4 1 0.1 2.3 1.6 2.6 0.6 0.2 1.3 0.1 1.9 0z"/>
				<path id="&lt;Path&gt;" class="s5" d="m875.1 329c-0.7 0.3-1.9 0.7-3 0.8-0.6 0.1-1.3 0.2-1.9 0-1.5-0.3-2-1.6-1.6-2.6q0.3-1.4 0.7-2.8-22.8-13.1-45.5-26.2c5.7 4.5-94.6-57.8-94.8-52.2 0 1.5-1.7 8.4-1.7 9.9 10.8 6.3 126.5 74.9 137.2 81.1q6.7-3.8 13.3-7.6-1-0.6-2-1.2 0 0.1-0.1 0.3c0 0.2-0.4 0.4-0.6 0.5z"/>
				<path id="&lt;Path&gt;" class="s27" d="m874.1 551.7c-1.6 0.7-2.8 1.9-3.8 3.3-1.5 2.1-2.6 4.5-2.6 7v18.4l1.4-0.8v-8.9-7.3-2.2c0-1.6 0.6-3.3 1.4-4.6q1.8-2.9 5.3-4.4v-0.1c0.9 0.4 1.9 0.6 2.9 0.7-0.3-0.5-0.7-0.9-1.1-1.2q-0.3-0.1-0.5-0.2c-1-0.4-2-0.1-3 0.3z"/>
				<path id="&lt;Path&gt;" class="s17" d="m877.6 551.6q-15.1-8.7-30.1-17.4c-1-0.5-2.2-0.4-3.3 0.1q-0.4 0.1-0.7 0.2c-2.9 1.5-5.8 6.1-5.8 10.1v0.8 12.5 5.1l30 17.4v-18.4c0-2.5 1.1-4.9 2.6-7 1-1.4 2.2-2.6 3.8-3.3 1-0.4 2-0.7 3-0.3q0.2 0.1 0.5 0.2z"/>
				<path id="&lt;Path&gt;" class="s5" d="m877.8 344.7q4 2.3 7.9 4.5 0.7-4.9 1.3-9.8-4.6 2.6-9.2 5.3z"/>
				<path id="&lt;Path&gt;" class="s27" d="m878.2 565.7q0.4 1.4 0.8 2.8l0.1-2.7q-0.5 0-0.9-0.1z"/>
				<path id="&lt;Path&gt;" class="s5" d="m883.4 379.9c1.6 1 3.9 1.9 5.1 0.4q0.4-0.5 0.5-1.1 0-0.2 0-0.3 0.5-3.2 0.9-6.4 1.3-9.7 2.6-19.3 1-7.1 1.9-14.3 0.3-2 0.6-4.1-4 2.3-8 4.6-0.6 4.9-1.3 9.8-1.9 13.9-3.7 27.9-0.1 0.5-0.2 1.1c0 0.3 0.3 0.7 0.6 1 0.3 0.3 0.7 0.5 1 0.7z"/>
				<g id="&lt;Group&gt;">
					<g id="&lt;Group&gt;">
						<path id="&lt;Path&gt;" class="s28" d="m768.3 220.6q-8.6 5-17.3 10 0-6.2 0-12.5 8.6 1.2 17.3 2.5z"/>
						<path id="&lt;Path&gt;" class="s29" d="m750.7 244.3c0.5-0.4 0.9-0.6 1.5-0.7 0.3-0.2 1.4 0 2 0.7 0.7 0.8 0.7 2.4 0.5 3.5-1.2-1.6-3.1-3.1-4-3.5z"/>
						<path id="&lt;Path&gt;" class="s30" d="m746.6 208.1c2.5 5.7 3.8 8.7 4.4 10q0 6.3 0 12.5-2.7 1.6-5.5 3.2c0.8-17.8 0.9-19.3 1.1-25.7z"/>
						<path id="&lt;Path&gt;" class="s29" d="m750.1 253.1c-0.8 0.1-1.7-0.3-2.2-1.2q0.6-0.1 1-0.3c0.6 0.5 0.8 0.9 1.2 1.5z"/>
						<path id="&lt;Path&gt;" class="s29" d="m747.9 251.9c-0.1-0.3-0.3-0.9-0.3-1.5 0.3 0.2 1 0.7 1.3 1.2q-0.4 0.2-1 0.3z"/>
						<path id="&lt;Path&gt;" class="s31" d="m747.3 245.7c2.3-4.3 7.3-6.6 9.1-2.1 0.6 1.7 0.1 4.1-0.5 5.8q-0.6-0.8-1.2-1.6c0.5-2-0.1-4.2-2.2-4.2-0.1 0-0.2 0-0.3 0-0.6 0.1-1 0.3-1.5 0.7-0.6 0.3-1.5 1.2-2.3 2.6-0.7 1.3-0.8 2.3-0.8 3.5 0.1 2.1 1.4 2.9 2.5 2.7 0.2 0.5 0.3 0.4 1 1.9-4.7 2.2-7.1-3.1-3.8-9.3z"/>
						<path id="&lt;Path&gt;" class="s28" d="m746.6 208.1c-0.2 6.4-0.3 8-1.1 25.7q-35.2 20.2-70.4 40.6c-1.2-2.8-4-9.5-4.3-10q-8.7-1.3-17.3-2.5 46.5-26.9 93.1-53.8z"/>
						<path id="&lt;Path&gt;" class="s32" d="m745.8 251.4c0 1.6 0.5 3.2 1.9 3.8-0.8-0.4-1.5-0.8-2.3-1.1q-0.5-0.3-0.9-0.7c-2-2.5-0.9-6.3 0.8-9.2 0.8-1.5 1.9-2.8 3.4-3.6 1.2-0.6 2.6-0.9 3.7-0.3 0.7 0.3 1.4 0.7 2.1 1.1-1.7-0.7-5 0.3-7.2 4.3-0.9 1.7-1.6 3.7-1.5 5.7z"/>
						<path id="&lt;Path&gt;" class="s29" d="m706.9 269.5c0.7-0.1 1.4 0.1 1.9 0.6 0.8 0.8 0.8 2.3 0.6 3.4q-0.7-0.8-1.5-1.5c-1.1-1-0.5-0.3-0.8-1.8 0-0.3-0.1-0.5-0.2-0.7z"/>
						<path id="&lt;Path&gt;" class="s29" d="m707.6 272c-0.6-0.5-1.6-1.5-2.2-1.9 0.4-0.3 1-0.6 1.5-0.6 0.3 0.5 0.8 1.9 0.7 2.5z"/>
						<path id="&lt;Path&gt;" class="s33" d="m705.4 270.1c2 1.1 3.6 2.8 5 4.7q0.1 0.1 0.2 0.3c0 0 0 0 0 0 5.8 7.8 8.6 24.8 15 28.7 1.5 0.9 2.9 0.9 4.6 0.6 1.9-0.4 3.2-1.1 4.7-1.8q0 0 0 0c0.2-0.1 2.7-1.7 3.9-2.7 15.9-12.5 18.4-42.1 8.8-49.5-0.1-2.1 1.1-4.5 2.7-5.9 0.5-0.3 0.3-0.3 0.6-0.1 13.6 8.2 12.7 43.4-7 60.2-5.2 4.4-12.8 8.4-19.3 6.3-12.9-4.1-13.9-28.5-22.4-34.7 0-2.4 1.4-5 3.2-6.1z"/>
						<path id="&lt;Path&gt;" class="s29" d="m704.9 278.9c-0.8 0.2-1.8-0.2-2.3-1.1 0.4-0.1 0.6-0.2 1-0.4 0.1 0.1 1.3 1.4 1.3 1.5z"/>
						<path id="&lt;Path&gt;" class="s29" d="m703.6 277.4c-0.5 0.3-0.7 0.3-1 0.4-0.3-0.5-0.4-1.1-0.4-1.6 0.8 0.5 1.1 0.8 1.4 1.2z"/>
						<path id="&lt;Compound Path&gt;" fill-rule="evenodd" class="s28" d="m780.3 347.1l-100.8 58.2-6-127.5c21.6-12.5 38.6-22.3 100.8-58.2zm-24.2-97.3c-0.1-0.1-0.1-0.2-0.3-0.3l0.1-0.1c0.6-1.7 1.1-4.1 0.5-5.8-0.4-0.9-1.1-1.8-2-2.2-0.7-0.4-1.3-0.7-2-1.1-1.1-0.5-2.5-0.2-3.7 0.4-1.6 0.8-2.6 2.1-3.5 3.5-1.7 2.9-2.7 6.8-0.7 9.2q0.4 0.4 0.9 0.7c2.6 1.2 3.3 2.1 5.7 1 3.7 8.2 2.7 24.5-5.1 36.8-4.4 6.8-10.7 11.1-14.6 12.3-4.7 1.5-7.3-0.7-9.8-4.9-4-7.3-6.7-18.3-11-24.1 0-0.1 0-0.1 0-0.1 1.1-2.6 1.2-6.8-1.2-7.7v-0.1c-0.8-0.4-1.5-0.7-2.3-1.1-1.5-0.8-3-0.4-4.3 0.7q-4.5 3.4-4.7 9.1-0.1 2.9 2 3.9c1.1 0.6 1.9 1 2.2 1.2v-0.1q0.2 0.2 0.4 0.2c1 0.4 2.4 0.1 3.3-0.4 6 9.8 8.5 32.3 24.1 30.6 4.6-0.5 8.3-3 8.5-3 4.1-2.5 7-4.8 10.3-9 11.4-13.6 14.5-37.6 7.2-49.6z"/>
						<path id="&lt;Path&gt;" class="s31" d="m706.8 267.2c1.3-0.3 2.6 0 3.3 0.6 1.7 1.6 1.4 5.1 0.5 7.3-0.2-0.3-0.1-0.3-1.2-1.6 0.2-1.1 0.2-2.6-0.6-3.4-0.5-0.5-1.2-0.7-1.9-0.6-0.8 0-1.5 0.5-2 1-2.6 2.2-3.1 5.8-2.3 7.3 0.5 0.9 1.5 1.3 2.3 1.1 0.3 0.4 0.5 0.7 1.2 1.8-3.9 2.1-6.8-1.1-5.5-5.6 1.1-4.6 4.1-7.4 6.2-7.9z"/>
						<path id="&lt;Path&gt;" class="s32" d="m703.9 269c-1.7 1.7-2.7 3.7-3.3 6.1-0.2 1.1-0.3 2.3 0 3.4 0.3 1 0.9 2 1.7 2.5-0.3-0.1-1.1-0.6-2.2-1.1q-2-1.1-2-3.9 0.2-5.7 4.7-9.2c1.4-1 2.8-1.4 4.3-0.7 0.8 0.4 1.5 0.8 2.3 1.2v0.1c-0.8-0.4-1.8-0.4-2.6-0.2-1.1 0.2-2.1 1-2.9 1.8z"/>
						<path id="&lt;Path&gt;" class="s30" d="m673.5 277.8l6 127.5-11.2-15.5v-124z"/>
						<path id="&lt;Compound Path&gt;" fill-rule="evenodd" class="s34" d="m668.3 265.8l-20.8-3 100.8-58.2 5.2 12 20.8 3c-62.2 35.9-79.2 45.7-100.8 58.2zm-14.8-3.9q8.6 1.2 17.3 2.5c0.3 0.6 3.1 7.2 4.3 10 16.4-9.5 82.9-47.8 93.2-53.8q-8.6-1.3-17.3-2.5c-0.6-1.2-1.4-3.1-4.4-10q-46.6 26.9-93.1 53.8z"/>
						<path id="&lt;Path&gt;" class="s28" d="m668.3 265.8v124l-26.8-6.5 6-120.5z"/>
					</g>
					<path id="&lt;Compound Path&gt;" fill-rule="evenodd" class="s35" d="m836.9 353.6c-0.3 4.4-0.7 7.7-0.8 8.3-1 2.8-2.8 4-5.2 4.9-0.9 0.3-1.7 0.8-2.5 0.9-13.2 2.3-23.7 10.3-34.9 16.7-4.7 2.7-9.3 5.5-14.2 8.3-0.1 5.6-3.5 9.1-7.7 12-8.4 5.6-17.6 8.3-27.6 8.7-15.4 0.7-64.5-8.1-64.5-8.1l-1-24.7-10.2-45.1-3.7-1.1c0 0-0.3-4.5 5.3-3.6 3.4 0.6 6.6-2 6.8-5.5 1.5-27.7 2.5-43.6-1.6-50.9-5-9.1-20.7-12.7-21.6-12.5l93.1-53.8c0.4 1 4.4 22.5 4.4 22.5l-5.5 3.2-48.7 28c0 0-6.5 3.9-7.1 5.4 7.7-2.7 14.4-7.3 21.3-11.2 17-9.5 63.3-36.4 63.3-36.4l4.8 102.6c0 0 18.4 2.9 36.1 5 13.2 1.5 22.7 13.2 21.7 26.4zm-101.2 51c-9.3-1-22.9 0-26.9 1.6 9.7 4 18.3 1.8 26.9-1.6zm22-151.5c0 0-1.8-3.7-4.5-6.6-2.5 1.7-2.7 4-1.9 6.5 2.5 8.1 3.1 16.4 3.3 24.8 0 1.2 0.4 2.4 0.6 3.6 4-9.7 4-18.5 2.5-28.3z"/>
					<g id="&lt;Group&gt;">
						<path id="&lt;Path&gt;" class="s36" d="m685.8 267.5c-2.4 1.4-2.2 1.3-2.2 1.3 0.7-2.1 1.6-3.4 2.2-1.3z"/>
						<path id="&lt;Path&gt;" class="s37" d="m681.7 336c-0.1 0.2-0.1 0.3-0.3 0.5-0.2 0.3-0.6 0.5-1 0.4-16.6-2.6-15.6-2.4-15.8-2.5-0.3-0.1-0.4-0.3-0.5-0.5-0.7-2.9-1.5-13.3-1.7-16.3-1-14-0.9-28.7 1.5-42.6 0.5-2.6 1.6-8.3 2.8-10.7 0.4-0.9 1-1.6 2-1.5 17 2.7 15.9 2.3 16.4 2.9 0.5 0.4 0.7 1.1 0.9 1.7l-0.2 0.1c-0.9-2.9-2.1 0.5-2.9 3.5-1.2 4.5-2.1 10.8-2.6 15.5-2.5 23.6 1.2 50.1 1.4 49.5z"/>
					</g>
				</g>
				<g id="&lt;Group&gt;">
					<g id="&lt;Group&gt;">
						<g id="&lt;Group&gt;">
							<path id="&lt;Path&gt;" class="s12" d="m834 287.2v18.4l-9.6-9.2z"/>
							<path id="&lt;Path&gt;" class="s38" d="m829.3 288.7c-0.6 0.6-7.3 7.1-7.9 7.7q0 3.8 0 7.7-49.2 0-98.4 0 0-3.9 0-7.7-3.9-3.9-7.9-7.7 57.1 0 114.2 0z"/>
							<path id="&lt;Path&gt;" class="s12" d="m829.3 304.1q-3.9 0-7.9 0 0-3.9 0-7.7 3.9 3.8 7.9 7.7z"/>
							<path id="&lt;Path&gt;" class="s39" d="m805.1 321c0-0.8 0-1.1 0-1.6 0-2.7 0.2-3-0.2-3.7-0.1-0.4-0.4-0.7-0.7-1 3 1.5 3.1 4.6 0.9 6.3z"/>
							<path id="&lt;Path&gt;" class="s40" d="m795.5 318c0-3.3 4.3-6.8 9.1-5.2 2.8 0.9 4.2 3 4.3 5.3 0 2.4-2 4.4-3.9 5.1 0 0 0.1-1.5 0.1-2.2 0.5-0.4 1-1 1.3-1.6 1.4-3.3-2.8-6.2-6.2-4.7-2.9 1.4-3.2 4.4-1.1 6.1 0 0.3 0 1.6-0.1 2.3-2-0.9-3.5-2.8-3.5-5.1z"/>
							<path id="&lt;Path&gt;" class="s41" d="m799.2 313c-2 0.9-3.7 2.9-3.7 5q0-0.7 0-1.4c0-1.1 0.5-2.8 2.2-4.2 2.4-1.9 6.5-2 9 0 1.3 1 2.2 2.6 2.2 4.2q0 0.7 0 1.5c-0.1-4.6-5.7-6.9-9.7-5.1z"/>
							<path id="&lt;Compound Path&gt;" fill-rule="evenodd" class="s38" d="m834 305.6c0 50.3 0 79.2 0 111.8h-123.6c0-50.3 0-20.4 0-111.8 65.5 0 87.8 0 123.6 0zm-25.1 11c0-1.6-0.9-3.2-2.2-4.2-2.5-2-6.6-1.9-9 0-1.7 1.4-2.2 3.1-2.2 4.2 0 0.6 0 0.9 0 1.5 0 2.2 1.5 4.1 3.5 5 0 1.8-0.7 6.3-0.7 6.5-1.5 9.3-5.1 18.8-13.4 23-5.8 2.9-13.6 2.9-18.8 1-8.4-2.6-12.9-11-14.8-19.5-1.1-4.6-1.6-9.8-1.6-11.3 2-0.8 3.6-2.8 3.6-5v-1.5c0-1.6-0.9-3.2-2.2-4.2-2.4-2-6.6-1.9-9 0-1.3 1-2.2 2.6-2.2 4.2q0 0.8 0 1.5c0 2.5 2 4.4 3.9 5.1 1 17.6 6.8 33.7 23.9 37.3 8.6 1.7 17.5 0.3 24.4-5.2 8.9-7.3 12.2-20.2 12.9-31.8 1.9-0.7 3.9-2.7 3.9-5.1q0-0.8 0-1.5z"/>
							<path id="&lt;Path&gt;" class="s39" d="m749.6 316.4c0-0.8-0.5-1.6-1.1-2 1.3 0.5 2.6 2 2.6 3.4 0 0.9-0.5 2-1.5 2.8 0-0.3 0-3.9 0-4.2z"/>
							<path id="&lt;Compound Path&gt;" fill-rule="evenodd" class="s42" d="m743.7 319.1c0-2.8-0.2-3 0.1-3.7q0.3-0.5 0.7-0.9c1.2-0.6 2.7-0.7 4-0.1 0.7 0.5 1.1 1.2 1.1 2 0 6.2 0.3 11.8 1.7 17.7 2.7 11.9 9.4 20.3 21.4 20.8 12.5 0.7 22.4-5.8 25.6-25.3 0-0.3 0.6-3.9 0.7-6.4 0-0.2 0.1-1.7 0.1-2.4-0.9-0.7-1.4-1.7-1.4-2.7 0.1-2.4 3.1-4.6 6.2-3.5q0.1 0.1 0.3 0.1c0.3 0.3 0.6 0.6 0.7 1 0.4 0.7 0.2 1 0.2 3.7 0 6-1.1 14.7-3.2 20.5-3.9 11.8-12.1 19.8-24.6 20.8-24 2-33.6-17.8-33.6-41.6zm55.5 0.2q0-0.1 0-0.2 0 0.1 0 0.3c0 1.1 0 0.1 0-0.1z"/>
							<path id="&lt;Path&gt;" class="s39" d="m744.5 314.5c-0.6 0.5-0.9 1.2-0.9 1.8 0 1.4 0 3 0.1 4.3-2.2-1.6-2.1-4.7 0.8-6.1z"/>
							<path id="&lt;Path&gt;" class="s40" d="m739.9 317.8c0.1-2.6 1.9-4.5 4.4-5.3 4.9-1.5 9 2 9 5.3 0 2.2-1.6 4.2-3.6 5 0-0.5 0-1 0-1.5 0-1.1-0.3-0.4 0.5-1.3 0.6-0.6 0.9-1.5 0.9-2.2 0-1.4-1.3-2.9-2.6-3.4-3.2-1.5-7.5 1.4-6.1 4.7 0.3 0.6 0.7 1.1 1.3 1.5 0 1.7 0.1 2.1 0.1 2.3-1.9-0.7-3.9-2.7-3.9-5.1z"/>
							<path id="&lt;Path&gt;" class="s41" d="m739.9 316.3c0-1.6 0.9-3.2 2.2-4.2 1.3-1 2.9-1.5 4.5-1.5 4.2 0 6.7 3 6.7 5.7v1.5c0-2.1-1.7-4.1-3.7-5.1-4-1.8-9.6 0.6-9.7 5.1q0-0.7 0-1.5z"/>
							<path id="&lt;Path&gt;" class="s12" d="m723 296.4q0 3.8 0 7.7-4 0-7.9 0c8.6-8.4 6.9-6.7 7.9-7.7z"/>
							<path id="&lt;Path&gt;" class="s12" d="m720 296.4l-9.6 9.2v-18.4z"/>
							<path id="&lt;Compound Path&gt;" fill-rule="evenodd" class="s43" d="m710.4 305.6l9.6-9.2-9.6-9.2h123.6l-9.6 9.2 9.6 9.2c-44.2 0-78.7 0-123.6 0zm4.7-1.5c59.2 0 80.4 0 114.2 0q-4-3.9-7.9-7.7c0.6-0.6 7.3-7.1 7.9-7.7q-57.1 0-114.2 0 4 3.8 7.9 7.7c-1.1 1.1 0.9-0.9-7.9 7.7z"/>
						</g>
						<g id="&lt;Group&gt;" style="mix-blend-mode: multiply">
							<path id="&lt;Path&gt;" class="s44" d="m710.4 369c0.1-0.7 0.1-11.3 0.1-23.4v26.4c-0.1-1-0.1-2-0.1-3z"/>
						</g>
					</g>
				</g>
				<path id="&lt;Compound Path&gt;" fill-rule="evenodd" class="s2" d="m879 416.5c-2.1 0.1-3.6 0.5-5.2 2.2-3.6 3.7-8.7 4.3-13.6 4.9-3.3 0.4-6.7 0.4-10.1 0.5q-12.7 0-25.4-0.1c-1.9 0-3.9 0.6-5.9-1.2 0.6-0.5 1.1-1.2 1.7-1.3 3-0.4 5.7-0.2 33.7-0.7 5.5-0.1 8.9-1 12.7-3.4-1.4-0.2-2.3-0.5-3.1-0.4-19.1 1.9-38.2 2-57.3 1.9-29.5 0-58.9 0-88.3 0-2.3 0-4.7-0.1-7.3-0.2-0.3-2.5-0.4-4.9-0.4-7.3v-6.3c0-1.9 0-3.9 0-5.9v-19.2c0.2-2.7 0-5.4 0-8-0.1-1-0.1-2-0.1-3 0.1-0.8 0-63.4 0-63.4 0 0 122.7 0 123.6 0 0.4 9-0.3 80-0.3 80 0 0 4.4 0.8 5.9 0.8 6.3 0.2 12.6 0.1 18.9 0.5 3.5 0.3 6.9 1.4 10.4 2.2 0.9 0.2 2.1 0.4 2.7 1.1 3.8 4.6 9.1 4.3 14.2 4.5-1.5-0.1-2.4-0.1 0.7 0q0.1 0.1 0.2 0.1c3.8 0.2 2 0.1 0 0-1 4.6-2.7 8.8-4.2 13 2.5 2.5-6.8 5.5-3.5 8.7zm7.7-21.7q-0.1 0-0.2-0.1-0.3 0-0.7 0 0.5 0 0.9 0.1 0 0 0 0zm-134-80.2c-4.9-4.8-8-4.7-12.3 0.6 4.2-2.7 7.7-2.8 12.3-0.6zm52.5 4c-0.4-0.9-1.4-2-2.3-2.1-0.9 0-1.9 0.9-2.7 1.7-0.4 0.2-0.3 1.1-0.3 1.6-0.4 3.4-0.4 6.8-1.1 10-1.1 4.6-2.3 9.2-4.1 13.5-3.1 6.9-8.6 11.1-16.3 12-3.6 0.4-3.6 0.6-3.8 4.9 6 0.5 10.9-1.3 15.3-4.4 5.1-3.5 8.1-8.6 9.9-14.3 2.1-6.6 3.6-13.3 5.4-20 0.2-0.9 0.3-2.1 0-2.9zm2.2-5.1c-3.7-3-5.9-3-9.1 0zm59.5 79.3c-6.9-3.2-21.6-4.3-32.4-2.3 5.9 2.8 11.3 2.1 16.5 2.1 5.1 0 10.2 2 15.9 0.2z"/>
				<path id="&lt;Path&gt;" class="s5" d="m636 380.8c1.4 0.5 3.4-0.5 4.6-1.4 0.4-0.3 1.1-0.8 1.1-1.4q0 0 0 0-0.1-0.5-0.1-1.1-2.5-18.9-5.1-37.7-3.9-2.3-7.9-4.6 1 7.4 2 14.9 1.5 11.4 3 22.8 0.5 3.3 0.9 6.6 0 0 0 0c0.1 0.8 0.6 1.6 1.5 1.9z"/>
				<path id="&lt;Path&gt;" class="s5" d="m715.2 420.5q0-0.6 0-1.1 0-8.4 0-16.9 0-8.9 0.1-17.9-3.7-2.1-7.3-4.2 0 13.2-0.1 26.3 0 4.3 0 8.5 0 2.9 0 5.8 0 0.6 0.3 1.1c0.6 1.3 2.1 1.4 3.5 1 1.1-0.3 3.5-1.5 3.5-2.6z"/>
				<path id="&lt;Path&gt;" class="s5" d="m880.5 279.4q3.3 1.8 6.5 3.7 15.5 8.9 31 17.9c0.8 0.4 1.7 1.1 2.2 1.8 0.5 0.6 0.4 0.7 0.4 0.8 0 0 0 0 0 0.1-0.1 0.4-0.7 1-1.1 1.4-0.3 0.3-0.9 0.7-1.5 1.1q-20.1 11.6-40.2 23.2-6.6 3.8-13.3 7.6-16.1 9.4-32.3 18.7-29.5 17-59.1 34.1c-5.7 3.4-16.4 3.5-22.3 0q-4.4-2.6-8.9-5.1-29.9-17.3-59.7-34.5-25.8-14.9-51.6-29.8-4.4-2.5-8.7-5-20-11.5-39.9-23.1-4.9-2.8-9.7-5.6-6.7-3.8-13.3-7.6-2.7-1.6-5.4-3.1-3.9-2.3-7.8-4.6-13.5-7.8-27-15.6c-0.8-0.4-1.7-1.1-2.3-1.8-0.4-0.6-0.4-0.7-0.4-0.8 0 0 0 0 0-0.1 0.2-0.4 0.7-1 1.1-1.3 0.4-0.4 0.9-0.8 1.6-1.2q11.5-6.6 23-13.3 3.4-1.9 6.9-3.9 16.6-9.6 33.3-19.3v-15.3q-31.5 18.2-63 36.4 0.4 1.6 0.8 3.3c0.4 1.6-0.1 3.8-1.5 4.3-1 0.3-2.4-0.2-4.3-0.6-1.3-0.4-3.5-0.8-4.8-0.8-0.1 0-0.5 0-0.5 0.1-3.5 3-5.9 7.1-5.9 11.7 0 6.1 4 11.1 9.3 14.2q0 0 0 0 16.8 9.6 33.6 19.3 4.6 2.7 9.3 5.4 3.9 2.3 7.9 4.6 9.5 5.5 19.1 11 19.9 11.5 39.9 23 3.3 2 6.7 3.9 4 2.3 7.9 4.6 22.9 13.2 45.7 26.3 12.9 7.5 25.8 14.9 3.6 2.1 7.3 4.2 7.7 4.5 15.4 9 5.6 3.2 11.2 6.4 1.1 0.7 2.2 1.3 0 0 0.1 0c9.9 5.9 25.8 5.8 35.6 0q0 0 0 0 10.2-5.9 20.5-11.8 4-2.3 7.9-4.6 12-7 24-13.9 5.8-3.3 11.6-6.6 3.9-2.3 7.9-4.6 5.1-3 10.2-5.9 4.4-2.5 8.7-5v-0.1q3.6-2 7.2-4.1 4.6-2.7 9.2-5.3 4-2.3 8-4.6 14.8-8.6 29.6-17.1 0 0 0 0c5.3-3 9.3-8 9.3-14.1 0-6.1-4-11.1-9.3-14.1q0 0 0 0-105.4-60.9-210.9-121.8v15.4q6.9 3.9 13.7 7.8 3.4 2 6.8 4 33.4 19.3 66.8 38.6 3.4 1.9 6.9 3.9 36.3 21 72.6 42z"/>
				<path id="&lt;Path&gt;" class="s5" d="m888.5 380.3c-1.2 1.5-3.5 0.6-5.1-0.4-0.3-0.2-0.7-0.4-1-0.7-0.3-0.3-0.6-0.7-0.6-1q0.1-0.6 0.2-1.1-12.8 7.3-25.5 14.6-4.9 2.9-9.9 5.8-0.4 3.3-0.9 6.6c0 0.4-0.2 0.8-0.5 1.1-1.1 1.6-3.4 0.7-5-0.3q-0.6-0.3-1-0.7c-0.4-0.4-0.6-0.7-0.6-1.1h-0.1q0.1-0.5 0.2-1.1-3.2 1.9-6.5 3.8-14.5 8.4-29 16.7-0.5 3.2-0.9 6.4 0 0 0 0 0 0.2 0 0.3-0.2 0.7-0.5 1.1c-1.2 1.5-3.5 0.7-5.1-0.3-0.6-0.4-1.6-1.1-1.6-1.8q0 0 0-0.1 0.1-0.5 0.1-1-11.1 6.4-22.2 12.8c-5.7 3.4-16.4 3.5-22.3 0q-4.4-2.5-8.8-5-13.4-7.8-26.7-15.5 0 0.5 0 1.1c0 1.1-2.4 2.3-3.5 2.6-1.4 0.4-2.9 0.3-3.5-1q-0.3-0.5-0.3-1.1 0-2.9 0-5.8-3.7-2.1-7.3-4.2-9.2-5.3-18.4-10.6-20.3-11.8-40.6-23.5 0 0.6 0.1 1.1 0 0 0 0c0 0.6-0.7 1.1-1.1 1.4-1.2 0.9-3.2 1.9-4.6 1.4-0.9-0.3-1.4-1.1-1.5-1.9q0 0 0 0-0.4-3.3-0.9-6.6-1.5-0.9-3-1.7-4.4-2.5-8.7-5.1-20-11.5-39.9-23-7-4-14.1-8.1 0.1 0.5 0.2 1c0.1 0.5-0.5 1.1-1.1 1.5-1.2 0.9-3.2 1.9-4.6 1.4-0.9-0.3-1.4-1-1.5-1.9q0 0 0-0.1-0.5-3.2-0.9-6.5-4-2.3-7.9-4.6-9.4-5.4-18.8-10.8c-0.8-0.4-1.7-1.1-2.2-1.8-0.5-0.6-0.4-0.7-0.4-0.8 0 0 0 0 0-0.1 0.1-0.5 0.7-1.1 1-1.4 0.4-0.3 1-0.7 1.6-1.1q7.9-4.5 15.8-9.1 3.2-1.9 6.5-3.7-0.3-2.2-0.6-4.3-4.7-2.7-9.3-5.4-9.5 5.5-19 11c-5.3 3-9.3 8-9.3 14.1 0 6.1 4 11.1 9.3 14.1q0 0 0 0 0 0 0 0 13.7 8 27.5 15.9 4 2.3 8 4.6 4 2.3 8 4.6 17.6 10.2 35.3 20.4 3.6 2.1 7.2 4.2 9 5.2 17.9 10.3 2.6 1.5 5.2 3.1 4 2.2 8 4.5 19.2 11.1 38.4 22.2 2.5 1.5 5.1 2.9 10.3 6 20.6 12 3.6 2 7.2 4.1 14.5 8.4 29 16.7 0 0 0 0 0.2 0.2 0.5 0.3c2.6 1.5 5.7 2.6 8.9 3.3q3.1 0.6 6.3 0.7c7.1 0.4 14.4-1 19.9-4.3q0 0 0 0 6.6-3.8 13.3-7.6 4-2.3 7.9-4.6 15.7-9.1 31.3-18.1 2.1-1.2 4.3-2.4 3.9-2.3 7.9-4.6 17.7-10.2 35.3-20.4 4-2.3 8-4.6 11.1-6.4 22.3-12.9 0 0 0 0c5.3-3 9.4-8 9.4-14.1 0-6.1-4-11.1-9.4-14.1q0-0.1 0-0.1-7.8-4.5-15.6-9-0.9 7.2-1.9 14.3 5.4 3.1 10.9 6.3c0.8 0.4 1.7 1.1 2.3 1.8 0.4 0.6 0.4 0.7 0.4 0.8 0 0 0 0 0 0.1-0.2 0.4-0.7 1-1.1 1.4-0.4 0.3-1 0.7-1.6 1.1q-6.7 3.9-13.5 7.8-0.4 3.2-0.9 6.4 0 0.1 0 0.3-0.1 0.6-0.5 1.1z"/>
				<path id="&lt;Path&gt;" class="s5" d="m796.7 430c1.6 1 3.9 1.8 5.1 0.3q0.3-0.4 0.5-1.1 0-0.1 0-0.3 0 0 0 0 0.4-3.2 0.9-6.4 2.5-18.8 5-37.6-3.9 2.3-7.9 4.6-2.5 18.8-5.1 37.6 0 0.5-0.1 1 0 0.1 0 0.1c0 0.7 1 1.4 1.6 1.8z"/>
				<path id="&lt;Path&gt;" class="s5" d="m838.6 403.1c0 0.4 0.2 0.7 0.6 1.1q0.4 0.4 1 0.7c1.6 1 3.9 1.9 5 0.3 0.3-0.3 0.5-0.7 0.5-1.1q0.5-3.3 0.9-6.6 0.5-3.2 0.9-6.4 2.1-15.7 4.2-31.3-4 2.3-7.9 4.6-2.2 16.3-4.4 32.6-0.4 2.5-0.7 5-0.1 0.6-0.2 1.1z"/>
				<path id="&lt;Path&gt;" class="s5" d="m819.9 458.3c4.7 2.7 9.2 3.1 12.8 1.5 3.6-1.6 6.3-5.2 6.9-10.2q0-0.1 0-0.1 1.9-13.8 3.7-27.6 0.6-3.9 1.1-7.8-4 2.3-7.9 4.6-2.1 14.9-4.1 29.9c-0.1 1.4-0.6 2.9-1.6 3.9-1.9 1.8-5.1 0.8-7.3-0.5-0.4-0.2-19-14.6-19.4-14.8-2.2 1.6 13.5 17.1 10.9 18.3q2.4 1.4 4.9 2.8 0 0 0 0 0 0 0 0z"/>
				<path id="&lt;Path&gt;" class="s5" d="m844.4 414.1q-0.5 3.9-1.1 7.8 9.9 5.7 19.8 11.4c9.5 5.5 18.5 1.3 19.8-8.7q2.4-17.8 4.8-35.5-4 2.3-8 4.6-2 15-4 29.9c-0.2 1.4-0.7 3-1.7 3.9-1.8 1.8-5 0.8-7.2-0.5q-11.2-6.4-22.4-12.9z"/>
			</g>
			<g id="&lt;Group&gt;">
				<path id="&lt;Path&gt;" class="s17" d="m582.5 835.4c0-1.3 0-2.4 0-3.7 74-42.7 70.2-40.2 71.1-41.5 0.5-0.6 0.8-1.3 0.9-2.1q0 1.8 0 3.6c0 1.1-0.8 2.3-1.6 3-0.6 0.4 5.3-3-70.4 40.7z"/>
				<path id="&lt;Path&gt;" class="s45" d="m626.6 786.2l-9.5 5.5-28.3-16.4 9.4-5.4z"/>
				<path id="&lt;Path&gt;" class="s45" d="m589.6 764.9l-9.4 5.4-28.4-16.4 9.4-5.4z"/>
				<path id="&lt;Path&gt;" class="s15" d="m585.4 810.1q-3.1 0.2-5.2-1.1c-1.4-0.8-2-1.7-1.8-3 0.2-1.3 1.5-2.6 3.8-4q3.7-2.1 6.8-2.2 3.2-0.2 5.2 1c1.5 0.8 2.1 1.9 1.9 3.1-0.3 1.2-1.6 2.6-4.2 4.1-2.3 1.3-4.4 2-6.5 2.1z"/>
				<path id="&lt;Path&gt;" class="s46" d="m582.5 831.7q0 1.9 0 3.7l-25.2 14.5q0-1.8 0-3.6z"/>
				<path id="&lt;Path&gt;" class="s47" d="m409.2 731.7c57.8 33.4 115.6 66.7 173.3 100l-25.2 14.6c-57.7-33.3-115.5-66.7-173.2-100.1z"/>
				<path id="&lt;Compound Path&gt;" fill-rule="evenodd" class="s17" d="m575 803.7c1.8-2.9 6.6-5.1 9.9-5.9 4.7-1.1 9-0.3 11.6 1.3 1.8 1 3.1 2.5 2.6 4.4l9.1-5.3 3.2 1.8-25.6 14.8-2.9-1.7c5.6-3.1 0.2 0.7-5.6-2.7-2.7-1.6-4-4-2.3-6.7zm5.2 5.3q2.1 1.3 5.2 1.1c2.1-0.1 4.2-0.8 6.5-2.1 2.6-1.5 3.9-2.9 4.2-4.1 0.2-1.2-0.4-2.3-1.9-3.1q-2-1.2-5.2-1-3.1 0.1-6.8 2.2c-2.3 1.4-3.6 2.7-3.8 4-0.2 1.3 0.4 2.2 1.8 3z"/>
				<path id="&lt;Path&gt;" class="s17" d="m559 799.3l18.5-10.7 2.8 1.6-2.8 1.7q3-0.6 4.6-0.4c2.2 0.3 4 1.2 4.8 3.3l-4 1c-0.8-2.2-4.3-2.9-6.9-2.1-3.1 0.9-3.6 1.5-13.9 7.4z"/>
				<path id="&lt;Path&gt;" class="s45" d="m552.6 743.5l-9.5 5.5-28.3-16.4 9.4-5.5z"/>
				<path id="&lt;Path&gt;" class="s15" d="m551.2 791.5c-1.8-0.2-5.7-1.6-5.9-3.5-0.2-1.3 1.5-2.2 3-2.3 3.6-0.4 6.3 2.2 12 3.6-3.3 1.9-5.4 2.8-9.1 2.2z"/>
				<path id="&lt;Compound Path&gt;" fill-rule="evenodd" class="s17" d="m540.8 787.6c-0.2-2.4 2.8-3.9 5.2-4.3 6.5-1 10.5 2.9 16.7 4.6 1-0.5 2.7-1.4 2.7-2.6-0.3-2-4.5-3.9-6.6-4.1q-1.8-0.1-4.3 0.7l-2.6-2c3.1-1.2 6-1.4 9.2-0.5 2.5 0.7 6.7 2.8 8.1 4.6 1.1 1.3 1.2 2.4-0.4 3.9-1.6 1.2-9.6 5.4-12.2 7.5q-1 0.7-1.5 1.7l-3.2-1.9q0.4-0.9 1.6-1.7c-3.4-0.2-6.5-0.6-9.5-2.4q-3.1-1.8-3.2-3.5zm9.8-1.8c-3.9-0.8-7.8 1.8-3.4 4.3 2.5 1.5 5.7 1.9 8.3 1.4 1.6-0.4 3.3-1.3 4.8-2.2-4-1-7.7-3.1-9.7-3.5z"/>
				<path id="&lt;Path&gt;" class="s17" d="m525.7 765.1c5.6-3.2 11.8-4.1 17.4-3.2 8.2 1.4 16.2 6.8 10.4 12.8l-4.1-1.5c2.3-2.5 2.2-4.9-1.5-7-3.9-2.2-8.7-2.6-12.9-1.5-3.7 1.1-8.4 3.4-10.5 6.3-2 2.7-0.4 5.3 2.4 7 3.5 2 8.5 2.6 14 0.5l2.6 2.5c-6.4 2.2-13.3 2.2-19.2-1.2q-4.1-2.4-5-4.8c-1.5-4 2.8-7.7 6.4-9.9z"/>
				<path id="&lt;Path&gt;" class="s45" d="m515.6 722.1l-9.4 5.5-28.4-16.3 9.5-5.5z"/>
				<path id="&lt;Compound Path&gt;" fill-rule="evenodd" class="s15" d="m651.9 784.4c1.2 0.8 2.8 2.3 2.6 3.7-0.1 1.2-0.8 2.6-2.6 3.6l-69.4 40c-57.7-33.3-115.5-66.6-173.3-100 75.5-43.6 69.9-40.7 72.4-41.2 3.1-0.7 6.6-0.4 9.5 1.1zm-63.1-9.1l28.4 16.4 9.4-5.4-28.3-16.4zm-9.7 24.8c-6.3 3.7-5.9 7.8-1.7 10.2 5.7 3.4 11.1-0.4 5.5 2.8l3 1.7 25.5-14.8-3.1-1.8-9.2 5.3c1.3-4.7-9.6-9.4-20-3.4zm-1.6-11.5l-18.5 10.6 3.2 1.8c10.4-6 10.8-6.4 13.8-7.3 2.7-0.9 6.1-0.2 7 2.1l4-1.1c-0.9-2-2.7-3-4.8-3.2q-1.6-0.2-4.6 0.3l2.8-1.6zm-25.8-34.7l28.4 16.4 9.5-5.4-28.4-16.4zm-8.9 30.5c-2.9 1.7-3.1 4.3 1.1 6.7 3 1.7 6.1 2.2 9.5 2.4q-1.2 0.8-1.6 1.7l3.2 1.9c0.8-1.6 2.1-2.4 6.8-5.1 1.2-0.7 5.8-3.2 6.9-4.2 1.6-1.4 1.5-2.5 0.4-3.9-1.4-1.8-5.7-3.8-8.1-4.6-3.2-0.8-6.1-0.7-9.2 0.6l2.6 2q2.5-0.8 4.3-0.7c2.1 0.2 6.3 2.1 6.6 4.1 0 1.2-1.8 2.1-2.7 2.6-3.5-1-7.3-3.1-9.9-4-4.3-1.3-7.6-0.8-9.9 0.5zm0.6-3.4l-2.6-2.5c-5.5 2.1-10.5 1.5-14-0.5-2.8-1.7-4.4-4.3-2.4-7.1 2.1-2.8 6.8-5.1 10.5-6.2 4.2-1.2 9-0.8 12.9 1.5 3.7 2.1 3.8 4.4 1.5 7l4.1 1.5c5.8-6-2.2-11.4-10.4-12.8-5.6-1-11.8 0-17.4 3.2-3.6 2.1-7.9 5.9-6.4 9.8q0.9 2.5 5.1 4.9c5.8 3.3 12.7 3.4 19.1 1.2zm-48.7-48.7c-0.6-1.8-2.4-2.7-4-3.6-3.3-1.9-4.6-2.7-9.6-5.5-1.7-1-3.5-2-5.3-3-1.4-0.9-2.8-1.8-4.3-2.4-2-0.7-5.1-0.9-7.3-0.5-3.3 0.8-6.5 2.9-9.8 4.9-4.2 2.6-4.2 2.4-6.4 3.7-3.2 2-3.2 4.5-1.1 6.5 0.9 0.8 14.7 8.5 17.4 10.2 3.1 1.8 4.3 2.7 8 2.9 6.9 0.5 10.7-3.8 18.2-7.8 1.5-0.8 3.5-1.7 4.1-3.5 0.2-0.6 0.2-1.3 0.1-1.9zm11.4-4.7l9.4-5.5-28.3-16.3-9.5 5.4zm46.4 16l-28.3-16.4-9.5 5.4 28.4 16.4z"/>
				<path id="&lt;Path&gt;" class="s48" d="m459.1 739.6c-9.1-5.3-8-4.7-9.5-5.6-1.7-0.8-3.5-1.8-4-3.6-0.3-1.3 0.1-2.4 1.1-3.4 0.9-0.9 2-1.4 3.1-2 7.3-3.8 11.3-8.3 18.2-7.8 3.5 0.2 5 1.2 7.9 3 1.8 1.1 16.3 9.1 17.5 10.2 1.2 1 1.8 2.3 1.3 3.8-0.6 1.8-2.6 2.7-4.1 3.5-7.5 4-11.3 8.3-18.2 7.9-4.4-0.3-4.6-1.2-13.3-6z"/>
				<path id="&lt;Path&gt;" class="s15" d="m380.9 755.4c-3.7-2.2-3.3-5.5 0-7.3l3.1-1.9c0.4 0-1.8-1 173.3 100.1l-3.1 1.8c-2.1 1.3-5.8 2-9.6 1.2-2.6-0.6 8.3 5.4-163.7-93.9z"/>
				<path id="&lt;Path&gt;" class="s17" d="m378.2 755.4q0-1.9 0-3.7c0.1 0.7 0.4 1.5 0.9 2.2 0.8 1.1-9.7-5.2 162.5 94.2 2.1 1.3 5.7 2 9.5 1.2 2.3-0.5 3.1-1.2 6.2-3q0 1.8 0 3.6l-3.1 1.8c-2.8 1.7-6.5 1.9-9.6 1.2-2.5-0.5 8 5.2-163.7-93.9-1.9-1.1-2.7-2.5-2.7-3.6z"/>
			</g>
		</g>
		<path id="&lt;Path&gt;" class="s17" d="m673.8 133.1v40.3l-51.9 30.5-35.3-20.4z"/>
		<path id="&lt;Path&gt;" class="s12" d="m715.1 288.7c0 0 77.1 0 114.2 0-0.8 1.4-7.9 7.7-7.9 7.7l7.9 7.7h-114.2l7.5-7.6z"/>
		<path id="&lt;Path&gt;" class="s12" d="m834 305.6l-9.6-9.2c2.8-2.4 7-7 9.6-9.2z"/>
		<g id="&lt;Group&gt;">
			<path id="&lt;Compound Path&gt;" fill-rule="evenodd" class="s49" d="m1163.8 497c8.6 11.6 6.4 24.8-5.9 31.9-12.3 7.1-32.3 6.1-47.1-4.2-7.9-5.4-12.1-12-13.5-17.7-1.5-5.9-0.4-11.4 2.7-15.8 3.4-4.9 9.8-9.4 19.4-10.9 16.7-2.7 35.4 4.6 44.4 16.7zm-13.8 12.5q2.7-2.2 2.4-5-0.2-2.3-2.7-4.9 0.7-0.5 1.5-0.9-0.9-0.8-1.8-1.7-0.8 0.5-1.6 0.9-3.5-2.6-6.6-3.2-4.5-0.8-8.1 1.2c-2.4 1.4-3.7 3.6-2.7 6.2q0.8 2.5 2.4 4.5-5.3 3-10.5 6-1.7-1.7-1.2-3.9 0.3-1.6 2.5-3.4-1.9-1.3-3.8-2.5-2.4 1.6-3 3.6-0.7 2 0 3.8 0.7 1.8 2.7 4-1.6 1-3.3 1.9 1 0.9 1.9 1.7 1.7-1 3.3-1.9 3.5 2.9 7.9 3.4 4.4 0.5 7.8-1.4c1.8-1.1 3.2-2.7 3.3-4.8q0-1.3-0.8-3-0.4-0.9-2.2-3.4 4.7-2.8 9.5-5.5c1.7 2.2 1.4 4-0.7 5.7q1.9 1.3 3.8 2.6z"/>
			<path id="&lt;Compound Path&gt;" fill-rule="evenodd" class="s50" d="m1152.4 504.5q0.3 2.8-2.4 5-1.9-1.3-3.8-2.6c2.1-1.7 2.4-3.5 0.7-5.7q-4.8 2.7-9.5 5.5 1.8 2.5 2.2 3.4 0.8 1.7 0.8 3c-0.1 2.1-1.5 3.7-3.3 4.8q-3.4 1.9-7.8 1.4-4.4-0.5-7.9-3.4-1.6 0.9-3.3 1.9-0.9-0.8-1.9-1.7 1.7-0.9 3.3-1.9-2-2.2-2.7-4-0.7-1.8 0-3.8 0.6-2 3-3.6 1.9 1.2 3.8 2.5-2.2 1.8-2.5 3.4-0.5 2.2 1.2 3.9 5.2-3 10.5-6-1.6-2-2.4-4.5c-1-2.6 0.3-4.8 2.7-6.2q3.6-2 8.1-1.2 3.1 0.6 6.6 3.2 0.8-0.4 1.6-0.9 0.9 0.9 1.8 1.7-0.8 0.4-1.5 0.9 2.5 2.6 2.7 4.9zm-16.5 0.3q4.6-2.7 9.1-5.3c-4.9-3.4-9.9-1.3-10.3 1.5q-0.2 1.5 1.2 3.8zm-0.2 7.9q0.2-1.4-1.5-4.2-5 2.9-10 5.8 2.1 1.5 4.7 1.8 2.6 0.2 4.7-1 1.8-1 2.1-2.4z"/>
			<path id="&lt;Path&gt;" class="s49" d="m1145 499.5q-4.5 2.6-9.1 5.3-1.4-2.3-1.2-3.8c0.4-2.8 5.4-4.9 10.3-1.5z"/>
			<path id="&lt;Path&gt;" class="s49" d="m1134.2 508.5q1.7 2.8 1.5 4.2-0.3 1.4-2.1 2.4-2.1 1.2-4.7 1-2.6-0.3-4.7-1.8 5-2.9 10-5.8z"/>
			<path id="&lt;Path&gt;" class="s50" d="m1054.1 497.8c-0.4-12 13.8-22.8 34.3-25.7 10.1-1.3 21-0.7 30.8 2.2 0 0.1-4.9 0.3-10.8 2.4-7.3-1.1-15.2-1-22.7 0.7-6.6 1.4-13.7 4.3-18.6 9-7.3 7.2-6.7 16.2 1.6 23 5.2 4.3 12.4 6.9 19 8.1 0.3 1 0.9 2.5 1.1 2.8 0.3 0.9 0.8 1.9 1 2.2-9.2-1.1-19.1-4-26.5-9.6-2.7-2.1-5.2-4.6-6.9-7.6-1.5-2.5-2.2-5.1-2.3-7.5z"/>
			<path id="&lt;Compound Path&gt;" fill-rule="evenodd" class="s50" d="m1093 487.9c4.1-6 12-11.4 23.5-13.3 20-3.2 42.9 5.4 53.9 20.3 10.5 14.1 7.7 30.2-7.1 38.8-14.8 8.6-39.2 7.4-57.3-5.1-9.5-6.6-14.6-14.6-16.4-21.6-1.7-7-0.4-13.7 3.4-19.1zm64.9 41c12.3-7.1 14.5-20.3 5.9-31.9-9-12.1-27.7-19.4-44.4-16.7-9.6 1.5-16 6-19.4 10.9-3.1 4.4-4.2 9.9-2.7 15.8 1.4 5.7 5.6 12.3 13.5 17.7 14.8 10.3 34.8 11.3 47.1 4.2z"/>
			<path id="&lt;Path&gt;" class="s49" d="m1088.9 497.7q-0.6 2.4-1.3 4.9-0.9-1-0.6-2.4 0.2-1.1 1.9-2.5z"/>
			<path id="&lt;Path&gt;" class="s49" d="m1087.7 517.5c-6.6-1.2-13.8-3.8-19-8.1-8.3-6.8-8.9-15.8-1.6-23 4.9-4.7 12-7.6 18.6-9 7.5-1.7 15.4-1.8 22.7-0.7-8.9 3.2-16.5 9.4-18.8 18.6q-0.3 0.9-0.5 1.7-1.8-0.7-3.5-1.4-2.4 1.6-3 3.3-0.7 1.7 0.1 3 0.7 1.4 2.9 3-1.7 0.9-3.3 1.9 0.9 0.5 1.9 1.1 1.3-0.7 2.5-1.4c0 0 0 0.4-0.1 0.5-0.3 2.9-0.1 5.8 0.6 8.8 0.2 0.6 0.4 1.5 0.5 1.7z"/>
			<path id="&lt;Path&gt;" class="s50" d="m1089.1 497q-0.1 0.4-0.2 0.7-1.7 1.4-1.9 2.5-0.3 1.4 0.6 2.4c-0.6 2.1-0.6 2-0.9 3.9q-1.2 0.7-2.5 1.4-1-0.6-1.9-1.1 1.6-1 3.3-1.9-2.2-1.6-2.9-3-0.8-1.3-0.1-3 0.6-1.7 3-3.3 1.7 0.7 3.5 1.4z"/>
			<path id="&lt;Path&gt;" class="s49" d="m1089.1 497q0 0 0.1 0.1c-0.6 3.1-0.4 6.5 0.4 9.9 1.8 7 6.9 15 16.4 21.6 18.1 12.5 42.5 13.7 57.3 5.1 6.7-3.9 10.9-9.2 12.6-15.2q-1.2 4.2-2.3 8.4c0 0.2-0.8 3.5-2.9 6.6-0.5 0.7-1.5 2.1-1.6 2.2-4.5 5.6-11.3 9.1-18.2 10.9-19 4.8-42-2.1-54.6-15.3-2.7-2.6-5.3-6.4-6.7-9.3-1.6-3-2.8-6.8-3.1-10.4-0.1-1.7 0-3.1 0.1-4.6 0.3-2.4 0.7-3.2 2.5-10z"/>
			<path id="&lt;Path&gt;" class="s49" d="m986.3 446.7q-0.1 0.4-0.1 0.7 0-5.2 0-10.4c0 0 0.1 1.1 0.2 1.8 0.4 3.3 1.9 6.3 4 8.9 0.5 0.7 1.7 1.9 2 2.2 3.3 3.3 8.8 6.9 15.9 9.2 0.3 0.1 1.2 0.4 1.5 0.4 15.8 4.9 36.5 4.1 51-3.5 7.7-4 14.8-10.6 14.8-19.2 0 4.9 0 5.9 0 10.6 0 7-4.8 12.8-10.6 16.7-6.2 4.3-16.1 8-28.4 8.9q0 0 0 0c-9.3 0.7-18.5-0.4-26.1-2.6-6.5-1.9-13.5-5.3-18.2-10-3.8-3.8-6.3-8.4-6-13.7z"/>
			<path id="&lt;Path&gt;" class="s50" d="m1069.9 460.1c-1.9 5.8-7 10.3-12.3 13.3-19.2 11.1-51.2 9.8-67.5-2.8 8.1 3.4 17.5 5 26.2 5.1 11.6 1.8 25.2 0.4 35.8-5.5 5.3-1.7 9.9-4 12.9-6.1 2-1.3 3.8-2.9 4.9-4z"/>
			<path id="&lt;Path&gt;" class="s49" d="m1054.1 508.6c0-0.5 0 0.2 0-10.8 0.1 2.4 0.8 5 2.3 7.5 1.7 3 4.2 5.5 6.9 7.6 7.4 5.6 17.3 8.5 26.5 9.6 1.7 3.3 4.3 6.6 6.5 8.8 0.8 0.9 1.6 1.6 2.4 2.3-13 0-29-3.5-38.2-12.5-3.5-3.3-6.1-7.7-6.4-12.5z"/>
			<path id="&lt;Path&gt;" class="s49" d="m1016.3 475.7c7.4 0 14.3-1 20.3-2.7 5.3-0.4 10.6-1.3 15.5-2.8-10.5 5.9-24.1 7.3-35.8 5.5z"/>
			<path id="&lt;Path&gt;" class="s49" d="m972.1 449.3q0 0.3 0 0.6 0-5.3 0-10.6c0 3.4 1.2 6.8 3.5 9.9 4 5.6 10.9 9.5 17.5 11.9q0 0 0 0c4.7 4.4 11.2 7.5 17.4 9.3 7.6 2.2 16.6 3.3 26.1 2.6-17.8 5.1-38.6 2.6-51.3-4.8-5-2.8-10.1-7.3-12.1-12.8-0.8-1.9-1.2-4.2-1.1-6.1z"/>
			<g id="&lt;Group&gt;">
				<path id="&lt;Path&gt;" class="s49" d="m986.2 436.8q0-4.7 0-9.3 0.1-0.1 0.1-0.1c0.3 3.3 1.6 6.6 4 9.6 13 16.3 50.2 20.1 72.2 7.4 3.4-1.9 6.6-4.3 9-7.4 2.8-3.5 4.1-7.2 4.1-10.8q0 5 0 10.6c0 8.6-7.2 15.2-14.8 19.2-8.5 4.4-18.1 6.2-27.6 6.6-9.4 0.2-18.5-1.3-24.9-3.5-6.8-2.3-14.7-6.6-18.8-12.5-2-2.9-3.3-6.2-3.3-9.8z"/>
				<path id="&lt;Compound Path&gt;" fill-rule="evenodd" class="s50" d="m1071.6 415.5c5.2 6.6 5.5 14.4-0.1 21.5-2.4 3.1-5.6 5.5-9 7.4-22 12.7-59.2 8.9-72.2-7.4-4.1-5.2-5.3-11.2-2.6-17.3 2.3-5.1 6.8-8.9 11.7-11.8 15-8.6 37.6-9.7 54.6-3.8 6.5 2.3 13.3 6 17.6 11.4zm-7.3 19.6c4.6-5.8 4.4-12.2 0.1-17.7-10.7-13.5-41.3-16.7-59.5-6.2-2.8 1.6-5.4 3.6-7.4 6.1-4.6 5.8-4.4 12.2 0 17.8 10.6 13.4 41.2 16.6 59.4 6.1 2.8-1.6 5.4-3.6 7.4-6.1z"/>
				<path id="&lt;Compound Path&gt;" fill-rule="evenodd" class="s49" d="m1064.4 417.4c4.3 5.5 4.5 11.9-0.1 17.7-2 2.5-4.6 4.5-7.4 6.1-18.2 10.5-48.8 7.3-59.4-6.1-4.4-5.6-4.6-12 0-17.8 2-2.5 4.6-4.5 7.4-6.1 18.2-10.5 48.8-7.3 59.5 6.2zm-24.9 3.2q2.4-0.1 4.9-0.2-0.3-2.5-3.1-4.1-2.2-1.3-6.2-1.7 0.1-0.7 0.2-1.3-1.4-0.1-2.8-0.1-0.1 0.6-0.2 1.3-4.6 0-7.1 1.1-3.8 1.6-4.2 4.4c-0.3 2.5 1.6 4.2 3.9 5.1q2.9 1.1 5.7 1.6-0.6 4.2-1.2 8.5-2.8-0.3-4.5-1.8-1.2-1.1-1.4-3.3-2.4 0.1-4.8 0.3 0 2.1 1.3 3.6 1.4 1.5 3.5 2.3 2.1 0.7 5.5 1.1-0.2 1.4-0.3 2.7 1.3 0.1 2.7 0.1 0.2-1.3 0.4-2.7 4.9 0.1 8.2-1.6 3.3-1.7 3.7-4.5c0.3-1.8-0.7-3.3-2.2-4.3q-1.2-0.9-3.3-1.5-1.1-0.4-4.6-1 0.6-3.9 1.1-7.8 2.3 0.4 3.5 1.3 1.1 0.9 1.3 2.5z"/>
				<path id="&lt;Compound Path&gt;" fill-rule="evenodd" class="s50" d="m1044.4 420.4q-2.5 0.1-4.9 0.2-0.2-1.6-1.3-2.5-1.2-0.9-3.5-1.3-0.5 3.9-1.1 7.8 3.5 0.6 4.6 1 2.1 0.6 3.3 1.5c1.5 1 2.5 2.5 2.2 4.3q-0.4 2.8-3.7 4.5-3.3 1.7-8.2 1.6-0.2 1.4-0.4 2.7-1.4 0-2.7-0.1 0.1-1.3 0.3-2.7-3.4-0.4-5.5-1.1-2.1-0.8-3.5-2.3-1.3-1.5-1.3-3.6 2.4-0.2 4.8-0.3 0.2 2.2 1.4 3.3 1.7 1.5 4.5 1.8 0.6-4.3 1.2-8.5-2.8-0.5-5.7-1.6c-2.3-0.9-4.2-2.6-3.9-5.1q0.4-2.8 4.2-4.4 2.5-1.1 7.1-1.1 0.1-0.7 0.2-1.3 1.4 0 2.8 0.1-0.1 0.6-0.2 1.3 4 0.4 6.2 1.7 2.8 1.6 3.1 4.1zm-5.5 11q0.2-1.5-0.9-2.4-1.1-1-4.7-1.8-0.6 4-1.2 8.1 2.7-0.1 4.7-1.1 1.9-1.1 2.1-2.8zm-7.9-7.3q0.5-3.7 1-7.4-2.7 0.1-4.4 1-1.7 1-1.9 2.3c-0.4 2.5 2.8 3.5 5.3 4.1z"/>
				<path id="&lt;Path&gt;" class="s49" d="m1038 429q1.1 0.9 0.9 2.4-0.2 1.7-2.1 2.8-2 1-4.7 1.1 0.6-4.1 1.2-8.1 3.6 0.8 4.7 1.8z"/>
				<path id="&lt;Path&gt;" class="s49" d="m1032 416.7q-0.5 3.7-1 7.4c-2.5-0.6-5.7-1.6-5.3-4.1q0.2-1.3 1.9-2.3 1.7-0.9 4.4-1z"/>
			</g>
			<path id="&lt;Path&gt;" class="s50" d="m993.1 461.1c-6.6-2.4-13.5-6.3-17.5-11.9-5.1-7.1-4.7-15.3 2.1-22.4 2.8-3 6.3-5.3 10-7.1q-1.5 3.2-1.5 6.5c0 0.6 0 0.7 0 1.3-8.5 7.3-8.2 16.9 0.6 24.1 0.9 2.9 2.6 5.8 4.7 8 0.6 0.6 1.5 1.5 1.6 1.5z"/>
			<path id="&lt;Path&gt;" class="s49" d="m986.3 449c0.1 1.1 0.4 2 0.5 2.6-8.8-7.2-9.1-16.8-0.6-24.1 0 21.1 0 20.6 0.1 21.5z"/>
			<path id="&lt;Path&gt;" class="s49" d="m981.5 465.7c1.8 1.4 4.4 3 7.7 4.5 0.9 0.4 0.9 0.3 0.9 0.4 16.3 12.6 48.3 13.9 67.5 2.8 5.3-3 10.4-7.5 12.3-13.3 0.2-0.3 0.7-0.7 0.8-0.9q0 3.3 0 6.6 0-0.3 0-0.5c0.1 2.6-0.5 5.2-1.7 7.5-0.6 1.4-1.7 3.1-3 4.5-0.5 0.6-1.5 1.6-2 2.1-18.7 17.4-62.6 15.6-77.9-2-2.9-3.3-4.8-7.3-4.8-11.8q0 0 0 0 0.1 0 0.2 0.1z"/>
		</g>
		<g id="&lt;Group&gt;">
			<path id="&lt;Path&gt;" class="s49" d="m314.1 673.5q0-4.7 0-9.4 0 0 0 0c0.3 3.3 1.6 6.5 4 9.5 13 16.3 50.2 20.2 72.2 7.5 3.4-2 6.6-4.4 9-7.5 2.8-3.4 4.1-7.1 4.1-10.8q0 5 0 10.7c0 8.5-7.1 15.2-14.8 19.1-8.5 4.4-18.1 6.3-27.6 6.6-9.4 0.3-18.4-1.3-24.9-3.5-6.8-2.2-14.7-6.6-18.7-12.5-2.1-2.9-3.3-6.2-3.3-9.7z"/>
			<path id="&lt;Compound Path&gt;" fill-rule="evenodd" class="s50" d="m399.4 652.1c5.2 6.6 5.5 14.5-0.1 21.5-2.4 3.1-5.6 5.5-9 7.5-22 12.7-59.2 8.8-72.2-7.5-4-5.1-5.3-11.2-2.6-17.2 2.3-5.2 6.8-9 11.7-11.8 15-8.6 37.6-9.8 54.6-3.8 6.5 2.2 13.3 5.9 17.6 11.3zm-7.2 19.6c4.5-5.8 4.4-12.2 0-17.7-10.7-13.4-41.3-16.6-59.4-6.2-2.8 1.6-5.5 3.6-7.5 6.2-4.6 5.7-4.4 12.2 0 17.7 10.7 13.4 41.3 16.6 59.4 6.2 2.8-1.6 5.4-3.6 7.5-6.2z"/>
			<path id="&lt;Compound Path&gt;" fill-rule="evenodd" class="s49" d="m392.2 654c4.4 5.5 4.5 11.9 0 17.7-2.1 2.6-4.7 4.6-7.5 6.2-18.1 10.4-48.7 7.2-59.4-6.2-4.4-5.5-4.6-12 0-17.7 2-2.6 4.7-4.6 7.5-6.2 18.1-10.4 48.7-7.2 59.4 6.2zm-24.9 3.3q2.5-0.1 4.9-0.2-0.3-2.6-3.1-4.2-2.2-1.3-6.2-1.7 0.1-0.6 0.2-1.3-1.4 0-2.8-0.1-0.1 0.6-0.1 1.3-4.7 0-7.2 1.1-3.8 1.6-4.2 4.5c-0.3 2.4 1.6 4.1 3.9 5q2.9 1.1 5.7 1.6-0.6 4.3-1.2 8.5-2.8-0.3-4.5-1.8-1.2-1.1-1.4-3.3-2.4 0.2-4.8 0.3 0 2.1 1.4 3.6 1.3 1.6 3.4 2.3 2.1 0.8 5.5 1.2-0.1 1.3-0.3 2.7 1.3 0 2.7 0.1 0.2-1.4 0.4-2.7 4.9 0.1 8.2-1.6 3.3-1.7 3.7-4.5c0.3-1.8-0.7-3.3-2.2-4.4q-1.2-0.8-3.3-1.5-1.1-0.3-4.6-1 0.6-3.9 1.2-7.7 2.2 0.4 3.4 1.3 1.1 0.9 1.3 2.5z"/>
			<path id="&lt;Compound Path&gt;" fill-rule="evenodd" class="s50" d="m372.2 657.1q-2.4 0.1-4.9 0.2-0.2-1.6-1.3-2.5-1.2-0.9-3.4-1.3-0.6 3.8-1.2 7.7 3.5 0.7 4.6 1 2.1 0.7 3.3 1.5c1.5 1.1 2.5 2.6 2.2 4.4q-0.4 2.8-3.7 4.5-3.3 1.7-8.2 1.6-0.2 1.3-0.4 2.7-1.4-0.1-2.7-0.1 0.2-1.4 0.3-2.7-3.4-0.4-5.5-1.2-2.1-0.7-3.4-2.3-1.4-1.5-1.4-3.6 2.4-0.1 4.8-0.3 0.2 2.2 1.4 3.3 1.7 1.5 4.5 1.8 0.6-4.2 1.2-8.5-2.8-0.5-5.7-1.6c-2.3-0.9-4.2-2.6-3.9-5q0.4-2.9 4.2-4.5 2.5-1.1 7.2-1.1 0-0.7 0.1-1.3 1.4 0.1 2.8 0.1-0.1 0.7-0.2 1.3 4 0.4 6.2 1.7 2.8 1.6 3.1 4.2zm-5.5 10.9q0.3-1.4-0.9-2.4-1.1-0.9-4.7-1.8-0.6 4.1-1.2 8.1 2.7 0 4.7-1.1 1.9-1.1 2.1-2.8zm-7.9-7.3q0.5-3.7 1-7.4-2.7 0.1-4.4 1.1-1.7 0.9-1.9 2.3c-0.4 2.5 2.8 3.5 5.3 4z"/>
			<path id="&lt;Path&gt;" class="s49" d="m365.8 665.6q1.2 1 0.9 2.4-0.2 1.7-2.1 2.8-2 1.1-4.7 1.1 0.6-4 1.2-8.1 3.6 0.9 4.7 1.8z"/>
			<path id="&lt;Path&gt;" class="s49" d="m359.8 653.3q-0.5 3.7-1 7.4c-2.5-0.5-5.7-1.5-5.3-4q0.2-1.4 1.9-2.3 1.7-1 4.4-1.1z"/>
		</g>
		<g id="&lt;Group&gt;">
			<path id="&lt;Compound Path&gt;" fill-rule="evenodd" class="s49" d="m762.3 862.6c8.6 11.6 6.4 24.8-5.9 31.9-12.2 7.1-32.3 6.1-47.1-4.2-7.9-5.4-12.1-12-13.5-17.7-1.5-5.9-0.3-11.4 2.7-15.8 3.4-4.9 9.8-9.4 19.4-10.9 16.7-2.7 35.4 4.6 44.4 16.7zm-13.8 12.5q2.7-2.2 2.4-5-0.2-2.3-2.7-4.9 0.8-0.5 1.6-0.9-1-0.8-1.9-1.7-0.8 0.5-1.6 0.9-3.5-2.6-6.5-3.2-4.6-0.8-8.1 1.2c-2.5 1.4-3.7 3.6-2.8 6.2q0.8 2.5 2.4 4.5-5.2 3-10.5 6-1.7-1.7-1.2-3.9 0.3-1.6 2.6-3.4-1.9-1.3-3.8-2.5-2.4 1.6-3.1 3.6-0.7 2 0 3.8 0.7 1.8 2.8 4-1.7 1-3.3 1.9 0.9 0.9 1.8 1.7 1.7-1 3.4-1.9 3.5 2.8 7.9 3.4 4.3 0.5 7.8-1.4c1.8-1.1 3.2-2.7 3.2-4.8q0.1-1.3-0.8-3-0.4-0.9-2.2-3.4 4.8-2.8 9.5-5.5c1.7 2.2 1.4 4-0.7 5.7q1.9 1.3 3.8 2.6z"/>
			<path id="&lt;Compound Path&gt;" fill-rule="evenodd" class="s50" d="m750.9 870.1q0.3 2.8-2.4 5-1.9-1.3-3.8-2.6c2.1-1.7 2.4-3.5 0.7-5.7q-4.7 2.7-9.5 5.5 1.8 2.5 2.2 3.4 0.9 1.7 0.8 3c0 2.1-1.4 3.7-3.2 4.8q-3.5 1.9-7.8 1.4-4.4-0.6-7.9-3.4-1.7 0.9-3.4 1.9-0.9-0.8-1.8-1.7 1.6-0.9 3.3-1.9-2.1-2.2-2.8-4-0.7-1.8 0-3.8 0.7-2 3.1-3.6 1.9 1.2 3.8 2.5-2.3 1.8-2.6 3.4-0.5 2.2 1.2 3.9 5.3-3 10.5-6-1.6-2-2.4-4.5c-0.9-2.6 0.3-4.8 2.8-6.2q3.5-2 8.1-1.2 3 0.6 6.5 3.2 0.8-0.4 1.6-0.9 0.9 0.9 1.9 1.7-0.8 0.4-1.6 0.9 2.5 2.6 2.7 4.9zm-16.4 0.3q4.5-2.7 9.1-5.3c-5-3.4-10-1.3-10.4 1.5q-0.2 1.5 1.3 3.8zm-0.3 7.9q0.2-1.4-1.5-4.2-5 2.9-10 5.8 2.1 1.5 4.7 1.8 2.7 0.2 4.8-1 1.8-1 2-2.4z"/>
			<path id="&lt;Path&gt;" class="s49" d="m743.6 865.1q-4.6 2.6-9.1 5.3-1.5-2.3-1.3-3.8c0.4-2.8 5.4-4.9 10.4-1.5z"/>
			<path id="&lt;Path&gt;" class="s49" d="m732.7 874.1q1.7 2.8 1.5 4.2-0.2 1.4-2 2.4-2.1 1.2-4.8 1-2.6-0.3-4.7-1.8 5-2.9 10-5.8z"/>
			<path id="&lt;Path&gt;" class="s50" d="m652.6 863.4c-0.4-12 13.8-22.8 34.3-25.7 10.1-1.3 21-0.7 30.8 2.2 0 0.1-4.9 0.3-10.8 2.4-7.3-1.1-15.2-1-22.7 0.7-6.6 1.4-13.7 4.3-18.5 9-7.4 7.2-6.7 16.2 1.5 23 5.2 4.3 12.4 6.9 19 8.1 0.3 1 0.9 2.5 1.1 2.8 0.4 0.9 0.9 1.9 1 2.2-9.1-1.1-19.1-4-26.5-9.6-2.7-2.1-5.2-4.6-6.9-7.6-1.4-2.5-2.2-5.1-2.3-7.5z"/>
			<path id="&lt;Compound Path&gt;" fill-rule="evenodd" class="s50" d="m691.5 853.5c4.1-6 12-11.4 23.5-13.3 20-3.2 42.9 5.4 54 20.3 10.4 14.1 7.7 30.2-7.2 38.8-14.8 8.6-39.2 7.4-57.2-5.1-9.6-6.6-14.7-14.6-16.4-21.6-1.8-7-0.5-13.7 3.3-19.1zm64.9 41c12.3-7.1 14.5-20.3 5.9-31.9-9-12.1-27.7-19.4-44.4-16.7-9.6 1.5-16 6-19.4 10.9-3 4.4-4.2 9.9-2.7 15.8 1.4 5.7 5.6 12.3 13.5 17.7 14.8 10.3 34.9 11.3 47.1 4.2z"/>
			<path id="&lt;Path&gt;" class="s49" d="m687.4 863.3q-0.6 2.4-1.3 4.9-0.9-1-0.6-2.4 0.2-1.1 1.9-2.5z"/>
			<path id="&lt;Path&gt;" class="s49" d="m686.2 883.1c-6.6-1.2-13.8-3.8-19-8.1-8.2-6.8-8.9-15.8-1.5-23 4.8-4.7 11.9-7.6 18.5-9 7.5-1.7 15.4-1.8 22.7-0.7-8.8 3.2-16.5 9.4-18.8 18.6q-0.3 0.9-0.5 1.7-1.7-0.7-3.5-1.4-2.4 1.6-3 3.3-0.7 1.7 0.1 3 0.7 1.4 2.9 3-1.7 0.9-3.3 1.9 1 0.5 1.9 1.1 1.3-0.7 2.5-1.4c0 0 0 0.4 0 0.5-0.4 2.9-0.2 5.8 0.5 8.8 0.2 0.6 0.5 1.5 0.5 1.7z"/>
			<path id="&lt;Path&gt;" class="s50" d="m687.6 862.6q-0.1 0.4-0.2 0.7-1.7 1.4-1.9 2.5-0.3 1.4 0.6 2.4c-0.5 2.1-0.5 2-0.9 3.9q-1.2 0.7-2.5 1.4-0.9-0.6-1.9-1.1 1.6-1 3.3-1.9-2.2-1.6-2.9-3-0.8-1.3-0.1-3 0.6-1.7 3-3.3 1.8 0.7 3.5 1.4z"/>
			<path id="&lt;Path&gt;" class="s49" d="m687.6 862.6q0.1 0 0.1 0.1c-0.5 3.1-0.4 6.5 0.5 9.9 1.7 7 6.8 15 16.4 21.6 18 12.5 42.4 13.7 57.2 5.1 6.7-3.9 10.9-9.2 12.6-15.2q-1.1 4.2-2.3 8.4c0 0.2-0.8 3.5-2.9 6.6-0.4 0.7-1.5 2.1-1.6 2.2-4.5 5.6-11.3 9.1-18.2 10.9-18.9 4.8-41.9-2.1-54.6-15.3-2.6-2.6-5.3-6.4-6.7-9.3-1.6-3-2.8-6.8-3-10.4-0.2-1.7-0.1-3.1 0.1-4.6 0.3-2.4 0.6-3.2 2.4-10z"/>
			<path id="&lt;Path&gt;" class="s49" d="m652.7 874.2c-0.1-0.5-0.1 0.2-0.1-10.8 0.1 2.4 0.9 5 2.3 7.5 1.7 3 4.2 5.5 6.9 7.6 7.4 5.6 17.4 8.5 26.5 9.6 1.8 3.3 4.3 6.6 6.5 8.8 0.9 0.9 1.7 1.6 2.5 2.3-13 0-29-3.5-38.3-12.5-3.5-3.3-6.1-7.7-6.3-12.5z"/>
		</g>
	</g>
</svg>